<?xml version="1.0" standalone="no"?>
<!DOCTYPE svg PUBLIC "-//W3C//DTD SVG 20010904//EN"
 "http://www.w3.org/TR/2001/REC-SVG-20010904/DTD/svg10.dtd">
<svg version="1.0" xmlns="http://www.w3.org/2000/svg"
 width="2048.000000pt" height="2048.000000pt" viewBox="0 0 2048.000000 2048.000000"
 preserveAspectRatio="xMidYMid meet">

<g transform="translate(0.000000,2048.000000) scale(0.100000,-0.100000)"
fill="#000000" stroke="none">
<path d="M6315 19778 c-3 -7 -6 -51 -7 -98 l-3 -85 -177 -3 -178 -2 0 -85 0
-85 -105 0 -105 0 0 -95 0 -94 -107 -3 -107 -3 3 -57 2 -58 -630 0 -631 0 -1
-85 c-1 -47 -2 -91 -3 -97 -1 -10 -41 -14 -158 -16 l-158 -3 0 -47 c0 -26 -3
-71 -6 -99 l-7 -53 -86 0 -86 0 -13 -77 c-6 -42 -14 -79 -18 -82 -3 -3 -52 -7
-110 -9 l-104 -4 0 -168 c0 -196 12 -180 -137 -180 l-92 0 -3 -627 c-2 -346
-1 -640 1 -655 l3 -28 109 0 109 0 0 -165 0 -165 110 0 109 0 3 -67 3 -68 68
-3 67 -3 0 -69 c0 -106 -11 -100 166 -100 l153 0 3 -86 3 -85 276 1 c152 0
282 -2 290 -5 12 -4 14 -97 11 -605 l-2 -600 -54 0 -55 0 -6 -55 c-7 -49 -10
-55 -31 -55 -24 0 -24 1 -24 100 l0 100 -89 0 c-106 0 -101 -8 -101 158 l0
114 -50 -4 -49 -3 -3 55 -3 55 -41 3 c-45 3 -54 16 -54 74 0 23 -5 27 -42 34
-24 4 -48 7 -54 6 -6 -1 -10 18 -10 45 l-1 48 -39 0 c-39 1 -39 2 -42 43 l-3
42 -72 2 c-40 0 -79 1 -87 2 -12 1 -16 19 -18 88 l-3 87 -132 3 -132 3 -2 30
c-1 17 -5 51 -9 78 l-7 47 -518 0 -519 0 0 -80 0 -80 -125 0 -125 0 0 -77 c0
-126 7 -119 -121 -117 -157 2 -149 7 -149 -86 l0 -78 -60 -7 -60 -7 -1 -39
c-1 -21 -2 -45 -3 -51 0 -8 -19 -14 -43 -16 l-43 -3 0 -50 c0 -49 -1 -50 -28
-49 -63 5 -60 12 -64 -134 -1 -74 -7 -138 -11 -143 -5 -4 -55 -10 -112 -11
l-103 -4 -11 -42 c-6 -27 -11 -231 -11 -564 l0 -522 80 0 80 0 0 -265 0 -265
40 0 c38 0 40 -2 40 -30 0 -30 0 -30 60 -30 l59 0 3 -97 3 -98 52 -3 52 -3 3
-47 c3 -43 5 -47 30 -50 21 -3 27 -9 30 -30 3 -26 5 -27 78 -32 41 -3 74 -8
73 -12 -2 -5 -3 -37 -3 -73 l0 -65 70 0 c66 0 70 -1 70 -22 0 -23 2 -23 100
-20 l100 3 0 -175 0 -176 -85 0 -85 0 -2 -267 c0 -148 -1 -274 -1 -280 1 -10
-27 -13 -108 -13 l-109 0 0 -340 0 -340 -88 0 -89 0 -6 -122 c-4 -66 -7 -195
-7 -285 l0 -163 -100 0 -100 0 0 -132 c0 -247 -7 -380 -22 -390 -7 -5 -32 -7
-55 -4 -24 3 -56 3 -73 0 l-30 -6 0 -194 0 -194 -70 0 -70 0 0 -180 0 -180
-115 0 -114 0 -3 -87 c-2 -61 -7 -88 -15 -89 -7 -1 -56 -2 -108 -3 l-95 -1 0
-165 0 -165 225 0 225 0 0 -150 0 -150 -125 0 -125 0 2 -237 c3 -236 3 -238
25 -241 14 -2 23 -11 25 -25 3 -21 9 -22 110 -25 l107 -3 3 -122 3 -122 38 0
37 0 0 -112 0 -113 90 0 90 0 0 -139 c0 -77 3 -146 6 -155 5 -13 22 -16 79
-16 88 0 85 6 85 -165 l0 -120 61 3 c33 2 75 1 93 -2 32 -6 32 -6 29 -60 -4
-66 10 -108 32 -100 11 5 15 -1 15 -25 0 -30 1 -31 45 -31 38 0 45 -3 45 -19
0 -11 5 -42 12 -69 8 -38 15 -49 26 -45 8 4 19 -2 24 -11 7 -12 17 -16 34 -12
19 5 25 2 30 -19 6 -24 10 -25 75 -25 l68 0 3 -48 c3 -45 4 -47 35 -50 32 -3
33 -5 33 -48 l0 -44 85 0 c81 0 85 -1 91 -24 3 -13 4 -37 2 -52 l-3 -29 -87
-3 -88 -3 0 -94 0 -95 -115 0 -115 0 0 -325 0 -325 -124 0 c-104 0 -125 -3
-130 -16 -8 -21 -8 -338 1 -547 l6 -167 29 0 28 0 0 -85 0 -85 -110 0 -110 0
0 -130 0 -130 -75 0 -75 0 0 -140 0 -140 -85 0 -85 0 -2 -163 -3 -162 -35 -1
c-19 -1 -50 -2 -67 -3 l-33 -1 0 -150 0 -150 -100 0 -100 0 0 -245 0 -244 -97
-3 -98 -3 -3 -242 -2 -242 -103 -3 -102 -3 0 -115 c0 -63 -1 -181 -2 -262 l-3
-148 -100 0 -100 0 0 -219 0 -218 -95 -5 c-53 -3 -97 -7 -100 -9 -2 -2 -6 -66
-9 -141 -4 -113 -3 -137 9 -142 8 -3 15 -14 15 -25 0 -10 7 -21 15 -25 8 -3
15 -14 15 -25 0 -10 7 -21 15 -25 8 -3 15 -17 15 -31 0 -16 6 -25 15 -25 8 0
15 -9 15 -19 0 -10 7 -21 15 -25 8 -3 15 -12 15 -21 0 -8 5 -15 10 -15 6 0 10
-7 10 -15 0 -8 7 -15 15 -15 9 0 15 -10 15 -26 0 -14 4 -23 10 -19 6 3 13 -2
17 -12 3 -10 26 -37 50 -60 23 -24 43 -47 43 -53 0 -5 5 -10 10 -10 6 0 30
-20 54 -45 25 -25 49 -45 55 -45 6 0 16 -9 23 -20 7 -11 18 -20 25 -20 7 0 13
-7 13 -15 0 -8 6 -15 13 -15 8 0 22 -9 32 -20 10 -11 24 -20 30 -20 7 0 16 -7
19 -16 3 -8 10 -12 16 -9 6 3 13 -1 16 -9 3 -9 12 -16 20 -16 8 0 14 -4 14
-10 0 -5 7 -10 15 -10 9 0 18 -6 21 -14 3 -8 13 -12 25 -9 13 4 19 0 19 -12 0
-12 6 -16 20 -12 12 3 20 0 20 -8 0 -11 33 -27 44 -22 1 1 11 -5 20 -13 10 -8
25 -15 34 -16 8 -2 18 -7 21 -11 3 -5 25 -15 48 -23 24 -7 43 -17 43 -22 0 -4
14 -8 30 -8 17 0 30 -4 30 -10 0 -5 18 -10 40 -10 22 0 40 -4 40 -10 0 -5 16
-10 35 -10 19 0 35 -4 35 -10 0 -7 2453 -10 7340 -10 l7340 0 0 23 c0 54 10
67 51 67 38 0 46 9 40 43 -1 5 13 7 31 5 34 -3 38 2 53 75 5 23 10 27 39 27
25 0 35 5 39 20 4 14 14 20 34 20 27 0 30 4 39 48 5 26 15 48 22 48 6 1 23 2
36 3 21 1 25 7 31 51 7 47 9 50 37 50 41 0 58 21 58 72 0 60 10 71 53 63 l35
-7 7 56 c7 55 8 56 40 56 33 0 33 0 40 60 6 52 10 61 31 66 19 5 24 13 24 40
0 32 2 34 36 34 31 0 35 3 32 23 -3 19 2 22 38 25 l41 3 7 76 c3 42 6 98 6
125 l0 48 75 0 75 0 0 103 c0 149 -3 143 84 139 l74 -4 6 44 c4 24 9 107 12
184 l6 141 79 7 c44 4 84 4 90 1 5 -4 10 0 11 7 0 7 2 18 3 23 2 6 3 76 4 156
l1 147 28 7 c15 4 55 6 89 6 l62 0 3 157 3 157 111 3 111 3 11 63 c7 38 12
169 12 328 0 146 3 280 6 297 l7 31 103 0 104 0 0 25 c0 16 6 25 15 25 10 0
15 10 15 34 0 28 4 35 23 38 l22 3 3 769 c2 609 0 771 -10 778 -7 4 -50 8 -94
8 -65 0 -83 3 -88 16 -3 9 -6 63 -6 120 0 84 3 106 15 110 15 6 147 -53 153
-68 5 -12 142 -10 142 2 0 6 16 10 35 10 22 0 38 6 41 15 4 8 17 15 30 15 13
0 28 9 34 20 6 11 16 19 23 17 6 -1 13 8 15 21 2 12 9 22 17 22 12 0 29 35 26
54 -1 5 4 13 11 17 7 5 13 14 14 21 2 24 16 58 24 58 8 0 22 34 24 58 1 7 7
17 15 21 7 5 11 13 7 19 -3 5 1 13 10 16 8 3 12 10 9 16 -3 6 3 24 15 40 12
16 19 34 16 39 -3 5 1 11 9 15 8 3 15 16 15 30 0 13 6 26 14 29 8 3 17 19 21
36 4 17 11 33 16 36 5 4 9 17 9 31 0 14 7 27 15 30 8 4 15 15 15 26 0 11 7 26
15 34 8 9 15 24 15 34 0 10 7 20 15 24 8 3 15 16 15 30 0 13 7 26 15 30 8 3
15 16 15 30 0 13 7 26 15 30 8 3 15 16 15 30 0 13 5 26 11 28 6 2 11 16 12 32
0 15 6 30 13 33 8 3 14 16 14 29 0 14 6 27 14 30 8 3 17 20 20 39 4 18 13 36
21 39 8 3 15 12 15 20 0 7 7 27 15 42 8 16 15 37 15 47 0 9 5 17 10 17 6 0 10
9 10 20 0 11 5 20 10 20 6 0 10 8 10 18 0 11 9 29 20 42 11 13 20 34 20 47 0
13 5 22 12 20 7 -1 13 8 14 21 1 12 9 31 18 41 9 9 16 27 16 38 0 12 4 23 9
25 5 2 11 12 13 23 1 11 9 26 16 33 6 7 12 22 12 33 0 10 5 19 10 19 6 0 10 8
10 19 0 10 7 24 15 31 8 7 15 23 15 35 0 13 7 26 16 29 9 4 14 13 10 21 -3 9
4 25 15 36 11 11 21 29 22 39 1 11 7 22 14 24 7 3 13 17 13 31 0 14 5 25 10
25 6 0 10 6 10 13 0 20 30 77 40 77 5 0 11 14 15 31 4 17 13 42 21 57 8 15 14
32 14 38 0 7 7 14 15 18 8 3 15 16 15 30 0 13 7 26 15 30 8 3 15 17 15 31 0
14 7 28 15 31 9 4 15 19 15 41 0 20 4 32 10 28 6 -4 13 7 16 24 4 17 10 31 14
31 5 0 11 13 15 30 4 17 11 30 16 30 5 0 9 11 9 24 0 13 6 26 14 29 7 3 16 18
20 32 4 15 14 34 21 42 8 8 15 25 15 39 0 13 4 24 9 24 5 0 12 14 16 30 4 17
10 30 15 30 4 0 11 15 14 34 4 19 13 37 21 40 8 3 15 16 15 30 0 13 7 26 15
30 8 3 15 17 15 31 0 16 6 25 16 25 12 0 15 6 11 21 -3 12 0 22 9 26 8 3 14
16 14 28 0 13 6 30 14 37 7 8 17 28 20 45 4 17 14 34 22 37 8 3 14 16 14 30 0
13 7 26 15 30 8 3 15 16 15 29 0 14 7 30 15 37 8 7 17 27 21 45 3 19 13 36 21
39 8 4 13 13 9 21 -3 8 1 21 9 29 8 8 15 21 15 28 0 8 7 23 15 34 8 10 15 27
15 37 0 9 9 25 20 34 11 10 20 27 20 39 0 12 6 24 14 27 9 4 12 14 9 26 -3 12
-1 21 6 21 6 0 11 7 11 15 0 8 4 15 10 15 5 0 7 7 4 15 -4 8 -1 15 5 15 6 0
11 11 11 24 0 13 7 26 15 30 8 3 15 17 15 31 0 14 5 25 10 25 6 0 10 77 10
210 0 133 -4 210 -10 210 -5 0 -10 -11 -10 -25 0 -14 -4 -25 -10 -25 -5 0 -10
-11 -10 -24 0 -15 -7 -27 -19 -31 -13 -4 -17 -12 -13 -30 3 -17 -1 -27 -12
-31 -9 -3 -16 -16 -16 -29 0 -13 -7 -25 -15 -29 -8 -3 -15 -16 -15 -30 0 -13
-6 -26 -12 -28 -7 -3 -13 -13 -13 -24 0 -11 -6 -18 -14 -16 -11 2 -12 0 -2
-11 9 -12 8 -16 -5 -21 -9 -4 -14 -12 -10 -21 3 -9 -1 -18 -9 -21 -8 -4 -15
-16 -15 -29 0 -13 -7 -25 -15 -29 -8 -3 -12 -12 -9 -21 3 -8 1 -15 -5 -15 -6
0 -11 -9 -11 -19 0 -10 -6 -21 -14 -24 -8 -3 -12 -14 -10 -25 3 -10 -2 -24
-10 -31 -9 -8 -16 -21 -16 -31 0 -10 -7 -20 -15 -24 -8 -3 -15 -17 -15 -31 0
-14 -4 -25 -9 -25 -5 0 -12 -14 -16 -30 -4 -17 -10 -30 -14 -30 -4 0 -13 -16
-21 -35 -8 -19 -16 -35 -20 -35 -3 0 -7 -15 -8 -32 -2 -18 -9 -36 -17 -41 -8
-4 -15 -19 -15 -32 0 -16 -6 -25 -15 -25 -10 0 -15 -10 -15 -30 0 -20 -5 -30
-15 -30 -10 0 -15 -10 -15 -30 0 -20 -5 -30 -15 -30 -10 0 -15 -10 -15 -29 0
-16 -6 -31 -15 -35 -9 -3 -15 -18 -15 -35 0 -16 -6 -31 -15 -35 -8 -3 -15 -17
-15 -31 0 -14 -7 -28 -15 -31 -9 -4 -15 -19 -15 -35 0 -19 -5 -29 -15 -29 -9
0 -15 -9 -15 -25 0 -14 -7 -28 -15 -31 -8 -4 -15 -17 -15 -30 0 -13 -4 -24
-10 -24 -5 0 -10 -11 -10 -25 0 -16 -6 -25 -15 -25 -9 0 -15 -6 -14 -12 4 -33
-2 -58 -13 -55 -8 1 -14 -11 -16 -28 -2 -16 -10 -33 -17 -37 -7 -5 -11 -17 -8
-28 4 -14 0 -20 -11 -20 -10 0 -16 -9 -16 -25 0 -14 -4 -25 -10 -25 -5 0 -10
-9 -10 -20 0 -11 -4 -20 -10 -20 -5 0 -10 -9 -10 -20 0 -11 -4 -20 -9 -20 -5
0 -12 -13 -16 -30 -4 -16 -11 -32 -16 -35 -5 -4 -9 -17 -9 -31 0 -15 -6 -24
-15 -24 -10 0 -15 -10 -15 -29 0 -16 -6 -31 -15 -35 -8 -3 -15 -14 -15 -25 0
-11 -5 -23 -10 -26 -6 -4 -8 -11 -5 -16 4 -5 2 -9 -4 -9 -6 0 -13 -11 -17 -24
-3 -14 -12 -27 -20 -30 -8 -3 -14 -19 -14 -35 0 -17 -6 -31 -15 -35 -10 -4
-15 -16 -13 -33 2 -19 -2 -28 -12 -28 -10 0 -16 -12 -18 -32 -2 -21 -9 -33
-18 -33 -8 0 -14 -10 -14 -24 0 -13 -7 -26 -15 -30 -11 -4 -14 -13 -10 -29 5
-19 2 -25 -15 -30 -17 -4 -20 -10 -15 -27 5 -15 1 -27 -14 -41 -11 -11 -18
-25 -15 -33 3 -7 -2 -16 -11 -20 -10 -4 -15 -12 -11 -21 3 -9 -1 -18 -8 -21
-8 -3 -12 -14 -9 -25 4 -13 0 -19 -12 -19 -12 0 -16 -6 -12 -20 3 -12 -2 -27
-11 -37 -17 -17 -18 -20 -21 -48 0 -8 -8 -15 -17 -15 -9 0 -14 -7 -12 -18 1
-10 -5 -30 -14 -45 -10 -14 -15 -33 -12 -41 3 -9 1 -16 -5 -16 -6 0 -11 -7
-11 -15 0 -8 -4 -15 -10 -15 -5 0 -10 -11 -10 -25 0 -14 -4 -25 -10 -25 -5 0
-10 -7 -10 -15 0 -8 -4 -15 -10 -15 -5 0 -7 -7 -4 -15 4 -8 -1 -17 -10 -21 -9
-3 -16 -16 -16 -29 0 -13 -7 -25 -15 -29 -8 -3 -12 -12 -9 -21 4 -8 1 -15 -6
-15 -7 0 -10 -7 -6 -15 3 -9 0 -15 -9 -15 -10 0 -15 -10 -15 -30 0 -17 -6 -33
-14 -36 -8 -3 -17 -17 -21 -32 -4 -15 -11 -30 -17 -33 -6 -4 -10 -19 -10 -34
0 -14 -7 -29 -14 -32 -8 -3 -14 -16 -14 -29 0 -15 -6 -24 -16 -24 -12 0 -15
-6 -11 -21 4 -13 -1 -26 -14 -37 -10 -9 -19 -26 -19 -38 0 -12 -7 -25 -16 -28
-9 -4 -14 -13 -10 -21 3 -9 -1 -18 -9 -21 -7 -3 -11 -12 -8 -20 3 -8 0 -14 -6
-14 -6 0 -11 -9 -11 -20 0 -11 -4 -20 -10 -20 -5 0 -10 -9 -10 -20 0 -11 -4
-20 -10 -20 -5 0 -10 -11 -10 -25 0 -16 -6 -25 -15 -25 -9 0 -15 -6 -14 -13 4
-30 -2 -47 -16 -47 -8 0 -15 -9 -15 -20 0 -21 -19 -60 -34 -71 -5 -4 -5 -12
-2 -18 4 -6 0 -14 -8 -17 -9 -3 -16 -15 -16 -25 0 -10 -4 -19 -10 -19 -5 0
-10 -11 -10 -25 0 -14 -4 -25 -10 -25 -5 0 -10 -13 -10 -30 0 -23 -4 -30 -20
-30 -13 0 -20 -7 -20 -19 0 -17 -5 -18 -42 -14 -24 4 -44 10 -46 14 -2 5 -17
9 -33 9 -19 0 -29 5 -29 15 0 10 -10 15 -29 15 -16 0 -31 6 -35 15 -3 8 -16
15 -30 15 -13 0 -26 7 -30 15 -3 8 -14 15 -25 15 -11 0 -23 5 -26 10 -4 6 -11
7 -17 4 -6 -4 -13 -3 -17 2 -11 16 -52 35 -61 29 -6 -4 -10 -1 -10 4 0 6 -6
11 -14 11 -8 0 -16 6 -19 14 -4 9 -15 12 -32 8 -20 -3 -27 0 -31 15 -4 14 -14
20 -32 20 -14 1 -28 6 -30 12 -2 6 -17 11 -33 11 -19 0 -29 5 -29 15 0 10 -10
15 -30 15 -20 0 -30 5 -30 15 0 10 -10 15 -28 15 -15 0 -35 9 -45 20 -9 11
-23 17 -31 14 -8 -3 -19 3 -26 15 -6 11 -14 20 -18 20 -31 -5 -62 3 -62 16 0
9 -9 15 -25 15 -14 0 -25 4 -25 10 0 5 -16 12 -35 16 -19 3 -35 10 -35 15 0 5
-9 9 -20 9 -11 0 -20 5 -20 11 0 6 -6 9 -14 6 -8 -3 -17 1 -20 9 -3 8 -16 14
-30 14 -13 0 -26 7 -30 15 -3 9 -18 15 -35 15 -16 0 -31 6 -35 15 -3 8 -17 15
-31 15 -16 0 -25 6 -25 15 0 10 -10 15 -30 15 -19 0 -33 6 -37 16 -3 9 -13 14
-24 11 -10 -3 -23 1 -30 9 -6 8 -22 14 -34 14 -14 0 -25 7 -27 16 -2 11 -15
18 -37 19 -19 2 -38 10 -43 19 -5 9 -13 14 -19 11 -5 -4 -22 3 -38 14 -16 12
-39 21 -50 21 -12 0 -21 4 -21 9 0 5 -14 12 -31 16 -17 4 -33 13 -35 20 -3 7
-20 16 -39 19 -18 4 -35 13 -38 20 -4 9 -14 12 -26 9 -12 -3 -26 3 -37 16 -10
12 -28 21 -40 21 -12 0 -27 7 -34 15 -7 8 -23 15 -36 15 -13 0 -24 5 -24 10 0
6 -7 10 -15 10 -8 0 -15 5 -15 10 0 6 -13 10 -29 10 -16 0 -31 6 -35 15 -3 8
-17 15 -31 15 -14 0 -28 7 -31 15 -4 8 -17 15 -30 15 -14 0 -34 9 -46 20 -12
11 -30 20 -40 20 -10 0 -18 5 -18 10 0 6 -13 10 -30 10 -20 0 -30 5 -30 15 0
10 -10 15 -29 15 -16 0 -31 6 -35 15 -3 9 -18 15 -35 15 -16 0 -31 6 -35 15
-3 8 -17 15 -31 15 -14 0 -25 4 -25 9 0 5 -13 12 -30 16 -16 4 -30 11 -30 16
0 6 -9 7 -20 4 -14 -5 -20 -2 -20 9 0 11 -9 16 -30 16 -19 0 -30 5 -30 14 0 8
-15 17 -35 20 -19 4 -35 11 -35 16 0 6 -11 10 -25 10 -14 0 -28 7 -31 15 -4 8
-18 15 -33 15 -15 0 -35 9 -45 21 -12 14 -25 20 -42 16 -19 -3 -26 1 -30 19
-3 13 -12 24 -19 24 -7 0 -15 10 -19 23 -6 27 3 67 15 67 5 0 9 13 9 29 0 17
6 31 16 35 11 4 14 13 11 27 -3 12 0 22 9 26 8 3 14 13 14 23 0 11 5 22 10 25
5 3 10 15 10 26 0 10 5 19 10 19 6 0 10 8 10 19 0 10 7 24 15 31 8 7 15 23 15
36 0 13 5 24 10 24 6 0 10 14 10 30 0 20 5 30 15 30 10 0 15 10 15 29 0 16 6
31 15 35 8 3 15 15 15 26 0 11 7 23 15 26 8 4 15 18 15 34 0 16 5 30 12 32 6
2 13 15 15 29 2 13 10 29 18 35 8 6 15 23 15 38 0 16 5 26 15 26 14 0 20 17
16 48 -1 6 3 12 8 12 6 0 13 15 17 34 3 19 13 37 21 40 8 4 13 13 9 21 -3 8 1
18 9 22 8 5 16 19 18 31 2 12 9 28 15 34 7 7 12 20 12 30 0 10 5 18 10 18 6 0
10 8 10 18 0 10 7 27 15 38 8 10 15 29 15 42 0 13 4 21 9 17 6 -3 13 10 17 30
3 19 10 35 15 35 5 0 9 7 9 15 0 8 5 15 10 15 6 0 10 9 10 20 0 11 4 20 9 20
5 0 12 15 15 34 4 19 13 39 21 46 8 7 13 16 10 20 -2 4 2 16 10 26 8 10 15 27
15 37 0 9 5 17 10 17 6 0 10 9 10 19 0 10 6 21 14 24 9 4 12 14 9 26 -3 13 0
23 11 27 8 3 18 21 22 39 3 19 13 36 21 39 10 4 13 14 10 27 -3 12 0 22 9 26
7 3 16 21 20 40 4 19 13 37 20 40 8 3 14 18 14 34 0 19 5 29 15 29 9 0 15 9
15 24 0 14 6 31 13 38 8 7 17 26 21 41 3 15 11 27 16 27 6 0 10 8 10 18 0 10
6 26 14 37 7 11 16 32 20 47 3 16 11 28 16 28 6 0 10 11 10 25 0 14 7 28 16
32 8 3 13 12 10 19 -8 20 4 44 20 44 9 0 14 11 14 30 0 19 5 29 13 27 7 -1 13
10 15 26 2 16 10 31 18 34 8 3 14 18 14 33 0 16 7 30 16 34 10 4 14 14 11 26
-3 12 1 23 10 29 9 4 17 20 18 34 2 14 12 36 23 47 11 12 18 28 16 35 -3 7 1
19 9 27 8 8 18 29 22 46 3 18 11 32 16 32 5 0 9 11 9 25 0 14 4 25 8 25 11 0
36 51 33 68 -1 7 5 15 13 18 9 3 18 21 22 40 3 19 12 34 19 34 7 0 13 12 13
26 -1 15 6 30 13 35 8 4 15 21 16 36 1 15 9 33 18 39 8 6 15 23 15 37 0 14 7
30 16 35 9 5 17 21 17 35 1 15 8 27 15 27 6 0 13 8 14 18 0 9 2 23 2 29 1 7 9
22 19 33 9 11 17 29 17 39 0 10 7 21 15 25 9 3 15 18 15 36 0 21 5 30 16 30
10 0 13 6 9 19 -3 10 1 24 10 31 8 7 15 23 15 35 0 13 7 25 15 29 8 3 15 17
15 31 0 14 7 28 15 31 9 4 15 19 15 35 0 18 5 29 14 29 8 0 17 15 20 35 4 19
10 35 14 35 4 0 13 20 20 45 7 25 16 45 22 45 5 0 10 11 10 24 0 13 6 26 14
29 7 3 16 21 20 40 4 19 14 38 22 41 9 3 14 13 10 21 -3 8 2 22 12 31 9 9 18
28 20 42 2 14 10 31 19 37 9 7 13 17 9 23 -3 6 1 17 9 26 8 8 18 29 21 45 4
17 10 31 15 31 5 0 9 9 9 19 0 11 5 23 10 26 5 3 10 15 10 26 0 11 7 19 16 19
10 0 14 5 10 15 -3 9 3 24 14 35 11 11 17 26 14 33 -3 8 2 21 10 30 9 9 16 24
16 35 0 11 7 22 15 26 8 3 15 14 15 25 0 24 25 73 33 64 4 -3 7 5 7 19 0 14 6
28 14 31 8 3 17 19 21 36 4 17 10 31 15 31 5 0 16 8 26 17 19 20 54 28 54 13
0 -6 11 -10 25 -10 14 0 28 -7 31 -15 4 -8 17 -15 30 -15 14 0 27 -6 30 -14 3
-7 17 -13 31 -13 14 0 30 -8 35 -17 5 -9 20 -16 32 -16 13 0 27 -7 30 -16 4
-10 13 -13 25 -9 13 4 26 -2 40 -16 11 -13 26 -19 35 -16 10 4 16 1 16 -8 0
-10 10 -15 29 -15 16 0 31 -6 35 -15 3 -8 14 -15 25 -15 11 0 23 -4 26 -10 3
-5 19 -10 36 -10 19 0 29 -5 29 -15 0 -10 10 -15 30 -15 19 0 33 -7 40 -20 8
-15 17 -19 34 -14 16 4 27 0 33 -10 5 -9 22 -19 38 -22 16 -3 34 -12 40 -21 7
-9 17 -13 23 -9 6 4 21 -3 32 -14 13 -13 28 -19 40 -15 13 4 22 -1 30 -15 7
-13 18 -19 26 -16 8 3 22 -3 31 -14 10 -11 28 -20 41 -20 12 0 25 -7 28 -15 4
-9 19 -15 35 -15 19 0 29 -5 29 -15 0 -10 10 -15 29 -15 17 0 31 -6 35 -16 4
-10 13 -13 25 -9 10 3 24 -1 31 -10 7 -8 20 -15 29 -15 9 0 27 -9 41 -20 14
-11 32 -20 40 -20 9 0 26 -8 40 -17 13 -9 33 -18 44 -18 11 -1 22 -7 24 -13 2
-6 19 -14 37 -18 19 -3 36 -12 39 -20 3 -8 17 -14 31 -14 14 0 28 -7 32 -16 4
-10 13 -14 29 -10 17 5 26 1 34 -15 9 -15 18 -19 35 -15 15 4 25 1 29 -9 3 -8
14 -15 24 -15 10 0 29 -9 42 -20 13 -11 29 -20 37 -20 7 0 13 -4 13 -10 0 -5
11 -10 24 -10 14 0 27 -4 31 -9 3 -5 19 -12 35 -16 17 -4 30 -11 30 -16 0 -5
11 -9 25 -9 14 0 25 -4 25 -8 0 -10 71 -42 94 -42 9 0 19 -7 22 -15 4 -8 15
-15 26 -15 11 0 26 -7 34 -15 9 -8 26 -15 40 -15 15 0 24 -6 24 -15 0 -10 10
-15 30 -15 20 0 30 -5 30 -15 0 -10 10 -15 30 -15 18 0 33 -6 36 -15 4 -9 15
-13 30 -11 17 3 27 -1 35 -15 7 -13 16 -18 29 -14 12 4 22 0 28 -11 5 -9 22
-18 38 -20 16 -2 30 -8 32 -14 2 -5 15 -10 28 -10 15 0 24 -6 24 -15 0 -10 10
-15 29 -15 17 0 31 -6 35 -16 4 -10 14 -14 26 -11 14 3 24 -1 31 -14 7 -14 16
-18 30 -14 12 4 21 1 25 -9 3 -9 12 -16 20 -16 11 0 14 22 14 105 0 93 -2 105
-19 115 -11 5 -28 10 -39 10 -11 0 -25 7 -32 15 -7 8 -28 17 -47 21 -19 4 -37
12 -39 18 -3 7 -14 12 -25 13 -12 1 -29 9 -38 17 -10 9 -27 16 -40 16 -12 0
-24 7 -27 15 -4 9 -13 13 -24 10 -9 -3 -23 1 -30 10 -7 8 -22 15 -33 15 -11 0
-25 7 -31 15 -6 8 -24 16 -40 19 -16 3 -32 10 -35 15 -4 5 -18 12 -33 16 -15
4 -32 13 -39 21 -6 8 -22 14 -34 14 -12 0 -28 7 -35 15 -7 8 -18 15 -25 15 -7
0 -30 9 -52 19 -71 36 -106 51 -118 51 -7 0 -16 7 -19 16 -4 9 -13 14 -21 10
-8 -3 -15 -2 -15 2 0 4 -13 13 -30 20 -16 6 -43 18 -60 24 -16 7 -30 16 -30
20 0 3 -13 9 -29 13 -16 3 -35 13 -42 21 -6 8 -22 14 -34 14 -12 0 -28 7 -35
15 -7 8 -23 15 -35 15 -12 0 -28 7 -35 15 -7 8 -23 15 -35 15 -12 0 -28 7 -35
15 -7 8 -19 15 -27 15 -17 0 -76 31 -81 43 -2 4 -14 7 -27 7 -12 0 -28 7 -35
15 -7 9 -19 14 -27 11 -8 -3 -16 1 -19 9 -4 9 -19 15 -35 15 -19 0 -29 5 -29
15 0 10 -10 15 -29 15 -16 0 -31 6 -35 15 -3 8 -17 15 -30 15 -14 0 -29 6 -33
14 -4 8 -21 16 -37 19 -16 2 -34 10 -40 18 -6 8 -22 16 -35 16 -13 1 -28 8
-32 14 -4 7 -18 14 -31 16 -13 2 -24 8 -26 13 -2 6 -14 10 -27 10 -13 0 -27 5
-30 10 -3 6 -14 10 -24 10 -10 0 -24 7 -31 15 -7 8 -23 15 -35 15 -13 0 -25 7
-29 15 -3 8 -14 15 -24 15 -11 0 -25 7 -32 15 -7 8 -16 12 -21 9 -5 -3 -21 4
-35 15 -14 11 -31 18 -38 15 -7 -3 -19 2 -26 11 -7 8 -21 15 -31 15 -11 0 -19
5 -19 10 0 6 -6 10 -12 10 -7 1 -31 9 -53 20 -22 11 -45 19 -51 20 -7 0 -14 7
-18 15 -3 9 -18 15 -35 15 -16 0 -31 6 -35 15 -3 8 -17 15 -31 15 -14 0 -28 7
-31 15 -4 8 -18 15 -34 15 -16 0 -30 7 -34 15 -3 9 -18 15 -35 15 -16 0 -31 6
-34 13 -5 15 -143 12 -163 -4 -7 -6 -17 -8 -22 -5 -5 3 -22 -4 -36 -15 -15
-12 -33 -18 -41 -15 -9 3 -15 -1 -15 -10 0 -8 -11 -19 -25 -24 -14 -5 -25 -16
-24 -22 4 -31 -2 -48 -16 -48 -10 0 -15 -10 -15 -29 0 -17 -5 -33 -10 -36 -6
-4 -8 -11 -5 -16 4 -5 -1 -9 -9 -9 -9 0 -16 -7 -16 -15 0 -8 -9 -30 -20 -50
-11 -20 -20 -42 -20 -49 0 -7 -7 -19 -15 -26 -9 -7 -13 -21 -10 -31 4 -11 2
-19 -4 -19 -6 0 -11 -6 -11 -14 0 -8 -7 -17 -16 -20 -9 -3 -14 -12 -11 -20 3
-8 -3 -23 -14 -34 -10 -12 -19 -30 -19 -42 0 -11 -7 -23 -15 -26 -8 -4 -15
-17 -15 -29 0 -13 -7 -30 -15 -39 -8 -8 -15 -24 -15 -35 0 -12 -5 -21 -11 -21
-6 0 -8 -7 -5 -15 3 -9 -1 -18 -9 -21 -8 -4 -15 -17 -15 -30 0 -13 -4 -24 -9
-24 -5 0 -12 -13 -16 -30 -4 -16 -11 -30 -16 -30 -5 0 -9 -11 -9 -25 0 -16 -6
-25 -15 -25 -9 0 -15 -9 -15 -24 0 -13 -7 -29 -15 -36 -8 -7 -15 -21 -15 -31
0 -11 -4 -19 -10 -19 -5 0 -10 -11 -10 -24 0 -14 -7 -31 -15 -40 -8 -8 -12
-21 -9 -29 3 -8 -2 -17 -10 -20 -9 -4 -16 -16 -16 -27 0 -11 -4 -20 -10 -20
-5 0 -10 -9 -10 -20 0 -11 -4 -20 -10 -20 -5 0 -10 -11 -10 -25 0 -14 -4 -25
-10 -25 -5 0 -10 -8 -10 -19 0 -10 -7 -24 -15 -31 -8 -7 -15 -21 -15 -31 0 -9
-7 -24 -15 -33 -8 -8 -15 -24 -15 -35 0 -12 -5 -21 -11 -21 -5 0 -8 -4 -5 -9
3 -5 0 -14 -7 -20 -8 -6 -20 -29 -27 -51 -7 -22 -17 -40 -21 -40 -4 0 -10 -14
-14 -30 -4 -17 -11 -30 -16 -30 -5 0 -9 -9 -9 -19 0 -29 -11 -51 -24 -51 -8 0
-16 49 -25 158 -7 86 -16 191 -20 232 -5 41 -16 165 -25 275 -9 110 -23 261
-31 335 -8 74 -22 222 -31 328 -14 149 -21 192 -31 192 -10 0 -12 7 -8 21 5
15 2 22 -14 26 -12 3 -21 9 -21 14 0 5 -6 9 -14 9 -8 0 -18 9 -21 20 -3 11
-15 20 -25 20 -10 0 -22 9 -25 20 -6 17 -15 20 -73 20 -37 0 -105 -5 -152 -10
-47 -5 -152 -14 -235 -20 -82 -6 -190 -15 -240 -20 -49 -6 -166 -17 -260 -25
-93 -8 -226 -21 -295 -30 -173 -22 -290 -34 -390 -40 -78 -5 -140 -11 -490
-46 -63 -6 -164 -15 -225 -19 -122 -9 -273 -23 -470 -45 -71 -8 -162 -18 -202
-21 -44 -4 -74 -12 -77 -20 -3 -7 -13 -10 -24 -7 -14 3 -22 -1 -27 -16 -3 -12
-15 -21 -26 -21 -14 0 -19 -7 -19 -25 0 -20 -5 -25 -24 -25 -22 0 -24 -3 -19
-40 4 -29 2 -40 -7 -40 -14 0 -10 -143 10 -335 13 -126 50 -537 57 -632 l6
-73 -67 0 -66 0 -2 268 -3 267 -107 -4 -108 -3 0 286 0 286 -90 0 -90 0 0 334
0 333 -89 7 c-48 3 -95 4 -105 0 -15 -6 -16 18 -16 280 l0 286 -90 0 c-86 0
-90 1 -91 23 0 12 0 72 1 133 1 71 -3 114 -9 119 -6 3 -11 22 -11 40 l0 34
103 3 c97 3 102 4 105 26 3 20 9 22 63 22 l59 0 0 69 0 70 43 5 c23 3 58 7 77
8 30 3 35 7 38 31 3 23 8 27 33 27 28 0 29 1 29 50 l0 50 45 0 45 0 0 94 0 95
53 3 c48 3 52 5 55 31 3 24 7 27 43 27 l39 0 0 261 c-1 144 2 264 5 267 3 4
37 8 76 10 l69 4 0 522 c0 286 -3 538 -6 558 l-7 37 -111 3 -111 3 -3 147 -3
146 -40 -5 c-48 -7 -59 4 -59 60 l0 37 -45 0 -45 0 0 55 0 55 -52 2 c-29 0
-60 1 -68 2 -11 1 -15 19 -18 81 -2 44 -5 81 -7 83 -1 1 -64 6 -139 9 l-136 6
0 99 0 98 -145 0 -145 0 0 78 0 77 -499 0 -499 0 -7 -67 c-3 -38 -3 -72 0 -78
4 -6 -41 -10 -129 -10 l-136 0 0 -90 0 -90 -85 0 -85 0 -1 -27 c-1 -16 -1 -34
0 -40 1 -9 -13 -13 -44 -13 -48 0 -49 -1 -45 -68 1 -25 -2 -32 -17 -30 -61 5
-79 -2 -91 -35 -7 -18 -12 -45 -12 -60 0 -25 -3 -27 -45 -27 l-45 0 0 -51 0
-51 -54 4 -55 3 -3 -137 c-2 -75 -6 -140 -10 -143 -4 -4 -33 -10 -65 -14 l-58
-6 -2 -60 c-5 -106 -11 -125 -38 -125 -24 0 -25 3 -25 55 l0 54 -57 3 -58 3
-3 618 -2 617 252 0 c139 0 258 4 264 8 6 4 12 41 13 82 2 44 7 78 14 82 7 4
67 8 135 8 l122 0 2 43 c1 23 2 51 2 62 1 17 9 21 49 23 l47 3 0 60 0 59 90 0
90 0 2 168 3 167 107 3 107 3 6 52 c3 29 5 329 3 667 l-3 615 -112 3 -113 3 0
174 0 175 -110 0 -110 0 0 40 c0 29 -4 40 -15 40 -10 0 -15 10 -15 34 0 19 -3
37 -8 40 -4 2 -64 6 -134 7 l-126 3 -6 29 c-3 16 -6 65 -6 109 l0 79 -492 -1
-493 -1 -3 40 c-3 37 -6 40 -35 43 l-32 3 -3 93 -3 92 -124 0 -125 0 0 34 c0
18 -3 60 -6 94 l-7 60 -77 7 -78 7 -6 47 c-3 27 -9 51 -13 54 -3 4 -8 21 -10
39 -2 17 -5 33 -6 35 -9 8 -66 12 -204 12 l-152 1 -3 93 -3 92 -1158 3 c-921
2 -1159 0 -1162 -10z m2295 -335 l0 -98 190 3 190 3 0 -100 0 -101 75 0 75 0
0 -95 0 -94 118 -3 117 -3 3 -140 3 -141 524 4 c288 3 536 1 551 -2 l27 -7 -7
-99 -6 -99 147 -3 148 -3 3 -151 3 -150 109 4 110 5 0 -632 0 -631 -110 0
-110 0 0 -179 0 -178 -92 -7 c-50 -3 -122 -6 -160 -6 l-68 0 0 -85 0 -85 -245
0 -245 0 0 110 0 110 110 0 110 0 0 65 0 64 78 3 77 3 3 58 3 57 144 0 145 0
0 65 0 65 -134 0 c-74 0 -140 2 -148 5 -10 4 -13 -10 -13 -62 l0 -68 -83 0
-82 0 0 -32 0 -33 -271 0 -270 0 3 52 3 52 35 1 c33 0 35 2 35 35 l1 35 110 3
111 3 9 47 c8 40 13 47 34 50 66 7 70 10 70 52 0 40 0 40 40 40 l40 0 0 75 0
75 -66 0 -66 0 4 -30 c4 -29 3 -30 -34 -30 l-38 0 0 -45 0 -45 -115 0 -115 0
0 -50 0 -50 -60 0 -60 0 0 -50 0 -50 -410 0 c-225 0 -413 -1 -417 -2 -5 -2 -9
30 -11 70 l-3 72 -169 0 -170 0 0 85 0 85 105 0 c77 0 105 3 105 13 0 8 4 7
10 -3 8 -12 10 -9 10 11 0 15 3 41 6 58 6 27 11 31 38 31 45 0 57 12 63 59 3
22 10 41 14 41 5 0 8 3 8 8 -4 24 4 33 12 12 5 -16 6 -4 3 38 -4 40 -2 62 4
62 6 0 14 -4 17 -10 3 -5 17 -10 31 -10 24 0 24 0 24 110 l0 110 -82 0 -83 0
0 -92 0 -93 -50 -1 -50 -1 -3 -86 -3 -87 -109 0 -110 0 0 -79 0 -79 -175 6
-175 5 0 -67 c0 -36 1 -69 2 -73 4 -18 -89 -21 -699 -22 l-643 -1 0 35 c0 35
0 35 -46 35 l-46 0 4 45 3 45 -172 0 -173 0 0 75 0 75 -104 0 -105 0 1 83 0
82 -86 3 -86 3 0 94 0 95 -65 0 c-36 0 -68 0 -72 0 -11 0 -16 -104 -8 -177 6
-53 10 -63 26 -63 16 0 19 -7 19 -55 l0 -55 55 0 55 0 0 -40 0 -40 54 0 55 0
3 -52 3 -53 105 0 105 -1 0 -79 0 -80 -158 0 -157 0 0 -72 0 -73 -345 0 -345
0 0 50 0 50 -37 2 c-21 1 -56 2 -78 2 l-40 1 -3 51 -3 51 -94 -5 -95 -5 0 47
c0 39 -3 46 -19 46 -41 0 -51 11 -51 57 l0 46 -37 -7 c-21 -3 -48 -6 -61 -6
-18 0 -23 -5 -21 -22 2 -13 -2 -33 -9 -45 -7 -12 -12 -33 -12 -46 0 -23 3 -24
45 -19 l45 5 0 -74 0 -74 55 3 55 4 0 -51 0 -51 100 0 c55 0 99 -3 99 -7 -1
-5 -1 -29 0 -55 1 -46 2 -48 29 -48 35 0 40 -5 35 -33 l-4 -22 -232 2 c-128 1
-247 2 -264 2 -31 1 -33 3 -33 36 l0 34 -92 3 -93 3 -3 52 -3 51 -67 4 c-37 2
-93 2 -124 0 l-58 -3 0 -59 0 -60 124 0 c140 0 136 2 136 -81 l0 -49 90 0 90
0 0 -65 0 -65 109 0 110 0 3 -135 3 -135 -277 0 -278 0 -1 75 c-1 41 -2 81 -3
88 -1 9 -41 13 -158 15 l-158 3 0 49 0 50 -55 0 -55 0 0 124 c0 68 -3 138 -6
155 l-7 31 -108 0 -109 0 2 613 3 612 113 3 112 3 0 159 0 160 105 0 105 0 0
95 0 95 155 0 155 0 0 90 c0 64 4 92 13 95 6 3 256 6 555 7 l542 3 0 -93 0
-93 85 3 86 3 2 150 2 150 98 3 97 3 0 72 c0 40 5 79 10 87 7 11 34 16 105 18
l95 4 0 94 0 94 175 0 175 0 0 88 c0 49 3 92 7 95 3 4 512 7 1130 7 l1123 0 0
-97z m-2040 -2445 l0 -73 722 0 723 0 5 70 5 70 167 0 c91 0 169 -2 172 -5 5
-6 14 -69 15 -112 l1 -28 148 0 148 0 -4 -35 c-3 -21 0 -35 7 -35 6 0 11 -19
11 -45 l0 -45 405 0 405 0 0 -34 c0 -18 3 -54 6 -80 l7 -46 98 0 99 0 0 -565
0 -565 -90 0 -91 0 3 -67 3 -68 88 -3 87 -3 0 -299 0 -300 -2345 0 -2345 0 0
300 0 300 75 0 75 0 0 65 0 65 -75 0 -75 0 0 575 0 575 80 0 80 0 0 69 0 68
46 7 c26 3 201 6 390 6 l344 0 2 68 c0 37 1 73 1 80 -1 9 31 12 128 12 l129 0
0 70 0 69 68 4 c37 2 115 4 175 5 l107 2 0 -72z m-3226 -2343 c-4 -9 -3 -40 1
-70 l6 -55 70 0 69 0 0 -95 0 -95 64 0 64 0 -2 -162 -1 -163 -50 -1 c-27 -1
-56 -2 -62 -3 -9 -1 -13 -23 -13 -76 l0 -75 -52 0 c-98 0 -98 0 -98 -96 l0
-84 -70 0 -70 0 0 -70 0 -70 -75 0 -75 0 0 -70 0 -70 -60 0 c-64 0 -65 -1 -63
-67 1 -9 -22 -13 -79 -13 -49 0 -77 4 -73 10 3 5 -6 12 -20 16 -24 6 -25 9
-25 85 l0 79 -57 1 c-32 1 -66 1 -75 0 -16 -2 -18 8 -18 78 l0 81 -70 0 -70 0
0 345 c0 339 0 346 19 335 13 -7 22 -7 26 0 3 5 24 10 46 10 l39 0 0 85 0 85
80 0 80 0 0 70 0 70 310 0 c272 0 309 -2 304 -15z m8646 -52 l0 -68 65 3 c49
3 65 0 65 -10 0 -10 3 -9 10 2 7 10 10 -14 10 -77 l0 -93 70 0 70 0 0 -345 -1
-344 -67 -3 -67 -3 -3 -72 -3 -73 -59 0 c-91 0 -90 2 -90 -106 l0 -94 -100 0
-100 0 0 45 0 45 -60 0 -60 0 -1 33 c-1 17 -1 49 -1 70 l1 37 -80 0 -79 0 0
70 0 70 -65 0 -65 0 0 85 0 85 -75 0 -75 0 0 75 0 75 -58 0 c-46 0 -59 3 -59
15 0 17 13 20 22 5 5 -8 11 -8 20 0 10 8 15 8 21 -2 6 -9 10 -4 14 17 7 32 -4
55 -26 55 -10 0 -13 8 -9 29 3 16 1 40 -4 53 -8 20 -10 17 -12 -22 -2 -25 -2
-60 0 -77 1 -24 -2 -33 -14 -33 -13 0 -15 20 -15 138 l0 138 52 3 c29 1 54 3
55 5 1 1 5 46 9 99 l7 97 67 0 67 0 7 50 c4 28 11 50 16 50 6 0 9 -6 8 -12 -2
-7 4 -11 12 -9 8 2 35 5 60 7 25 1 47 3 50 4 3 1 14 2 25 1 16 -1 16 1 -5 10
l-25 12 25 8 c17 5 4 7 -40 5 -36 -1 -78 1 -95 5 -16 4 108 7 278 8 l307 1 0
-67z m-805 -531 c-3 -3 -11 0 -18 7 -9 10 -8 11 6 5 10 -3 15 -9 12 -12z
m-6009 -2429 c1 -7 2 -24 3 -37 1 -23 6 -25 54 -28 l52 -3 3 -102 3 -102 -43
-3 c-38 -3 -43 -6 -46 -28 -1 -14 -7 -42 -14 -62 l-11 -38 -129 0 -128 0 0 40
c0 39 -1 40 -35 40 l-35 0 0 100 0 100 35 0 c26 0 35 4 35 17 0 10 6 41 12 71
l13 53 115 -3 c83 -2 115 -6 116 -15z m4694 -62 l0 -79 40 5 c30 4 40 2 41 -8
0 -8 3 -27 6 -44 2 -16 2 -58 -2 -92 -6 -57 -9 -63 -30 -63 -39 0 -55 -11 -55
-36 l0 -24 -125 0 -125 0 0 65 0 65 -50 0 -50 0 0 79 c0 97 5 111 39 111 57 0
71 10 71 49 0 21 3 41 7 44 3 4 57 7 120 7 l113 0 0 -79z m6464 -297 c9 -3 16
-15 16 -26 0 -14 5 -18 15 -15 18 8 21 -9 36 -233 11 -175 14 -203 43 -485 18
-169 49 -553 71 -879 9 -120 18 -222 21 -227 3 -5 -2 -9 -10 -9 -11 0 -16 -9
-16 -30 0 -20 -5 -30 -15 -30 -10 0 -15 -11 -15 -35 0 -25 -4 -35 -16 -35 -11
0 -13 -6 -9 -19 4 -14 0 -23 -15 -31 -15 -8 -19 -17 -15 -31 4 -11 2 -19 -4
-19 -6 0 -11 -7 -11 -15 0 -8 -5 -15 -10 -15 -6 0 -10 -6 -9 -12 3 -18 -12
-52 -28 -61 -7 -4 -13 -19 -13 -31 0 -13 -7 -27 -16 -30 -12 -4 -14 -13 -10
-31 5 -18 2 -27 -9 -31 -8 -4 -15 -17 -15 -30 0 -15 -6 -24 -15 -24 -10 0 -15
-10 -15 -30 0 -20 -5 -30 -15 -30 -10 0 -15 -10 -15 -29 0 -16 -6 -31 -15 -35
-8 -3 -15 -17 -15 -31 0 -14 -4 -25 -10 -25 -5 0 -10 -11 -10 -25 0 -14 -5
-25 -11 -25 -6 0 -8 -7 -5 -15 3 -9 -1 -18 -9 -21 -8 -4 -15 -15 -15 -25 0
-10 -4 -19 -10 -19 -5 0 -10 -11 -10 -25 0 -14 -8 -29 -19 -35 -13 -6 -17 -17
-14 -30 3 -12 -1 -22 -11 -26 -9 -3 -16 -17 -16 -30 0 -14 -7 -27 -15 -30 -9
-4 -15 -11 -14 -18 4 -29 -2 -46 -17 -46 -11 0 -14 -6 -9 -20 4 -13 1 -22 -9
-26 -10 -4 -16 -18 -16 -35 0 -19 -5 -29 -15 -29 -10 0 -15 -10 -15 -29 0 -16
-6 -31 -14 -34 -9 -4 -12 -14 -9 -26 3 -14 0 -23 -11 -27 -9 -3 -16 -17 -16
-30 0 -15 -6 -24 -16 -24 -10 0 -14 -5 -10 -15 3 -9 -1 -18 -9 -22 -10 -3 -13
-12 -10 -24 4 -11 2 -19 -4 -19 -6 0 -11 -13 -11 -30 0 -20 -5 -30 -15 -30 -9
0 -15 -9 -15 -25 0 -14 -4 -25 -10 -25 -5 0 -10 -7 -10 -15 0 -8 -4 -15 -10
-15 -5 0 -10 -8 -10 -19 0 -10 -7 -24 -15 -31 -8 -7 -15 -22 -15 -34 0 -12 -9
-29 -19 -38 -12 -10 -18 -24 -14 -37 3 -14 0 -23 -11 -27 -9 -3 -16 -14 -16
-24 0 -28 -11 -51 -21 -44 -5 3 -9 -6 -9 -20 0 -14 -4 -26 -10 -26 -5 0 -10
-11 -10 -24 0 -13 -7 -27 -16 -30 -9 -3 -14 -13 -10 -21 3 -8 -1 -21 -9 -29
-9 -8 -16 -27 -17 -42 -2 -15 -10 -29 -19 -31 -10 -3 -16 -15 -16 -31 0 -14
-6 -28 -12 -30 -6 -2 -11 -14 -11 -27 0 -13 -7 -28 -17 -33 -10 -6 -14 -16
-10 -26 4 -10 1 -19 -8 -22 -8 -4 -15 -17 -15 -30 0 -15 -6 -24 -15 -24 -10 0
-15 -10 -15 -30 0 -17 -6 -33 -14 -36 -7 -3 -16 -23 -20 -45 -4 -25 -12 -39
-21 -39 -10 0 -15 -10 -15 -31 0 -17 -4 -28 -10 -24 -6 4 -10 -10 -10 -34 0
-30 -4 -41 -15 -41 -8 0 -15 -9 -15 -20 0 -11 -6 -23 -12 -25 -7 -3 -14 -22
-16 -42 -1 -20 -8 -40 -14 -44 -10 -6 -10 -15 0 -42 7 -18 12 -50 12 -70 0
-26 4 -37 15 -37 11 0 15 -11 15 -38 0 -42 26 -72 61 -72 13 0 23 -8 26 -21 3
-12 11 -18 19 -15 20 8 44 -4 44 -20 0 -9 11 -14 29 -14 16 0 31 -6 35 -15 3
-9 19 -15 41 -15 19 0 35 -4 35 -10 0 -5 14 -10 30 -10 19 0 30 -5 30 -14 0
-11 -25 -16 -107 -20 -235 -14 -379 -28 -405 -39 -21 -9 -29 -21 -34 -52 -4
-22 -7 -43 -6 -46 1 -4 -35 -10 -78 -14 -86 -8 -86 -8 -81 -71 1 -19 -6 -22
-60 -28 -34 -3 -94 -6 -133 -6 -39 0 -109 -7 -156 -15 -47 -8 -114 -15 -150
-15 -35 0 -118 -7 -185 -15 -169 -22 -479 -43 -483 -33 -2 5 -9 14 -16 21 -8
7 -15 58 -20 127 -13 213 -35 465 -46 520 -5 30 -17 154 -25 275 -8 121 -19
256 -24 300 -5 44 -12 122 -16 173 -3 51 -11 128 -17 170 -11 88 -14 111 -34
362 -8 102 -19 210 -24 240 -5 30 -9 94 -9 142 -1 48 -5 98 -11 112 -5 14 -12
89 -15 168 -4 79 -15 199 -25 268 -10 69 -24 188 -29 265 -15 201 -29 352 -46
495 -8 69 -19 211 -25 315 -6 105 -17 228 -24 275 -8 47 -17 150 -20 230 -3
80 -13 195 -21 255 -8 61 -15 144 -15 185 0 64 3 77 20 88 11 7 20 19 20 27 0
12 14 15 68 15 37 0 113 7 170 15 57 8 174 19 260 25 173 11 301 23 496 46 71
9 193 19 270 24 78 5 148 11 156 14 8 3 69 10 135 16 176 14 409 37 492 49 40
6 126 13 190 16 65 4 197 15 293 26 373 41 398 43 424 33z m-8136 -561 l3 -83
194 0 195 0 0 -90 0 -90 170 0 170 0 0 -95 0 -95 155 0 155 0 0 -85 0 -85 88
0 87 0 0 -87 0 -86 73 2 72 2 0 -93 0 -93 70 3 70 4 0 -161 0 -161 75 0 76 0
-3 -184 c-3 -211 -11 -196 95 -196 l57 0 0 -237 c0 -131 -3 -248 -6 -260 -4
-14 -14 -23 -25 -23 -11 0 -19 -7 -19 -16 0 -9 -9 -18 -20 -21 -11 -3 -20 -12
-20 -19 0 -8 -9 -14 -20 -14 -12 0 -20 -7 -20 -16 0 -10 -5 -14 -15 -10 -10 4
-19 -3 -25 -19 -6 -16 -15 -23 -25 -19 -8 3 -15 1 -15 -5 0 -16 -38 -51 -52
-48 -7 1 -14 -8 -16 -21 -3 -17 -8 -21 -22 -17 -14 4 -19 0 -22 -17 -2 -15
-11 -24 -25 -26 -13 -2 -23 -10 -23 -18 0 -8 -7 -14 -15 -14 -8 0 -15 -7 -15
-15 0 -8 -7 -15 -16 -15 -14 0 -16 -9 -11 -59 5 -46 3 -60 -8 -65 -26 -9 -15
-126 12 -126 7 0 16 -13 20 -30 4 -21 11 -30 25 -30 15 0 18 -5 13 -20 -5 -15
0 -22 19 -30 14 -5 26 -16 26 -25 0 -8 9 -24 20 -35 11 -11 20 -26 20 -34 0
-8 12 -17 26 -20 17 -5 24 -12 20 -21 -3 -9 5 -22 19 -31 14 -9 25 -24 25 -34
0 -10 9 -20 20 -23 13 -3 18 -10 14 -21 -4 -11 -1 -16 10 -16 9 0 16 -7 16
-15 0 -8 5 -15 10 -15 6 0 10 -7 10 -15 0 -8 3 -15 8 -15 4 0 6 -20 4 -45 -2
-25 -8 -45 -13 -45 -5 0 -9 -67 -9 -149 l0 -148 -31 -7 c-17 -3 -56 -6 -85 -6
l-54 0 0 -142 0 -143 -75 3 -75 4 0 -76 0 -76 -75 0 -75 0 0 -80 0 -80 -85 0
-85 0 0 -70 0 -70 -145 0 -145 0 0 -80 0 -80 -145 0 -145 0 0 -75 0 -75 -202
-2 -203 -3 -3 -77 -3 -78 -819 0 -820 0 0 80 0 80 -200 0 -200 0 0 75 0 75
-156 0 -155 0 7 80 7 80 -147 0 -146 0 0 76 0 75 -87 -2 -86 -2 2 82 2 81 -75
0 -76 0 0 70 0 70 -70 0 -70 0 0 145 0 145 -75 0 -75 0 0 150 0 150 -84 0 -83
0 -7 448 c-5 351 -3 997 3 1150 1 21 5 22 81 22 l80 0 2 192 3 191 78 -2 77
-2 0 155 0 155 68 3 67 3 3 88 c2 59 7 87 15 88 7 0 40 0 75 -1 l62 -1 0 90 0
91 80 0 80 0 0 90 0 90 150 0 150 0 0 90 0 90 160 0 160 0 0 90 0 90 210 0
210 0 0 85 0 85 773 -2 772 -3 3 -82z m4280 -485 c2 -18 11 -28 28 -32 15 -4
24 -14 24 -26 0 -10 9 -22 20 -25 13 -4 20 -15 20 -31 0 -17 5 -24 20 -24 15
0 20 -7 20 -25 0 -16 6 -25 16 -25 19 0 44 -24 44 -43 0 -8 9 -17 20 -20 13
-3 18 -10 14 -21 -4 -11 -1 -16 10 -16 9 0 16 -7 16 -16 0 -9 9 -18 21 -21 12
-3 18 -11 15 -19 -3 -8 1 -14 9 -14 8 0 15 -7 15 -16 0 -9 9 -18 20 -21 11 -3
20 -12 20 -19 0 -8 7 -17 15 -20 8 -4 15 -12 15 -19 0 -7 9 -15 21 -18 11 -3
19 -11 18 -19 -3 -27 1 -38 17 -38 9 0 18 -9 21 -20 3 -10 16 -26 29 -35 13
-8 24 -22 24 -30 0 -7 9 -17 20 -20 11 -3 20 -15 20 -26 0 -10 6 -19 14 -19 7
0 16 -9 19 -21 3 -11 15 -23 26 -26 12 -3 21 -14 21 -24 0 -11 7 -19 15 -19 9
0 15 -9 15 -25 0 -20 5 -25 25 -25 18 0 25 -5 25 -19 0 -10 9 -21 19 -24 11
-2 21 -15 23 -28 2 -13 9 -23 16 -21 30 6 50 -40 51 -118 1 -41 3 -88 6 -105
3 -16 10 -82 15 -145 6 -63 17 -187 25 -275 8 -88 21 -236 29 -330 8 -93 17
-177 20 -185 3 -8 10 -87 16 -175 5 -88 17 -214 25 -280 9 -66 24 -230 36
-365 26 -316 55 -636 74 -825 8 -82 22 -235 30 -340 20 -263 16 -241 43 -237
19 3 22 -1 22 -27 0 -28 8 -36 33 -32 4 0 7 -5 7 -12 0 -18 37 -47 60 -47 13
0 24 -10 30 -25 11 -28 15 -28 220 -4 140 16 577 59 603 59 9 0 17 -4 17 -10
0 -5 -15 -10 -34 -10 -33 0 -35 -2 -38 -37 -2 -31 -7 -38 -25 -38 -12 0 -31
-10 -43 -22 -11 -13 -27 -23 -35 -23 -8 0 -12 -6 -9 -14 3 -8 -3 -16 -15 -19
-17 -4 -21 -13 -21 -45 l0 -41 -55 -6 -55 -7 0 -54 0 -54 -45 0 -45 0 0 -57
c0 -82 -8 -103 -36 -103 -15 0 -24 -6 -24 -15 0 -8 -7 -15 -15 -15 -11 0 -15
-12 -15 -49 l0 -48 -48 -7 c-48 -6 -82 -31 -82 -61 0 -8 -9 -15 -20 -15 -15 0
-20 -7 -20 -25 0 -20 -5 -25 -24 -25 -16 0 -26 -7 -29 -21 -4 -15 -11 -19 -25
-15 -15 5 -21 1 -26 -19 -5 -18 -13 -25 -31 -25 -18 0 -25 -5 -25 -20 0 -12
-7 -20 -16 -20 -18 0 -44 -24 -44 -40 0 -7 -8 -10 -19 -7 -13 3 -22 -3 -30
-19 -6 -13 -18 -24 -26 -24 -19 0 -45 -23 -45 -39 0 -6 -9 -11 -19 -11 -11 0
-23 -9 -26 -20 -4 -11 -11 -18 -16 -15 -5 4 -9 1 -9 -4 0 -6 -6 -11 -13 -11
-7 0 -17 -10 -22 -22 -6 -14 -17 -22 -28 -20 -12 2 -21 -4 -24 -17 -3 -11 -15
-21 -27 -23 -11 -2 -20 -9 -19 -16 2 -6 -4 -12 -12 -12 -9 0 -18 -7 -21 -15
-4 -8 -15 -15 -25 -15 -10 0 -19 -7 -19 -15 0 -8 -9 -15 -20 -15 -11 0 -20 -7
-20 -15 0 -8 -7 -15 -16 -15 -9 0 -18 -9 -21 -21 -4 -12 -11 -18 -20 -15 -9 4
-17 -1 -20 -14 -4 -13 -14 -20 -30 -20 -16 0 -27 -7 -30 -20 -3 -11 -14 -20
-24 -20 -12 0 -19 -7 -19 -20 0 -15 -7 -20 -25 -20 -18 0 -25 -5 -25 -20 0
-15 -7 -20 -25 -20 -18 0 -25 -5 -25 -20 0 -13 -7 -20 -20 -20 -11 0 -20 -7
-20 -15 0 -8 -9 -15 -20 -15 -11 0 -20 -7 -20 -15 0 -9 -6 -12 -15 -8 -10 3
-15 0 -13 -8 2 -11 -11 -14 -52 -14 -49 0 -55 3 -58 22 -2 14 -12 23 -25 25
-14 2 -21 9 -19 20 1 9 -7 22 -18 28 -11 6 -20 17 -20 25 0 8 -7 15 -15 15 -8
0 -15 6 -15 14 0 7 -9 16 -20 19 -13 3 -20 14 -20 30 0 19 -6 26 -22 29 -13 2
-24 10 -24 18 -1 8 -2 20 -3 26 0 7 -10 14 -21 17 -11 3 -20 14 -20 25 0 11
-9 22 -20 25 -11 3 -20 14 -20 25 0 12 -9 22 -21 25 -15 4 -20 11 -15 22 4 12
0 18 -13 22 -11 3 -22 15 -25 28 -3 12 -15 25 -26 28 -12 3 -20 13 -20 26 0
13 -6 21 -16 21 -9 0 -18 9 -21 20 -3 11 -11 20 -18 20 -8 0 -15 10 -17 22 -2
13 -10 23 -18 23 -8 0 -16 10 -18 23 -2 12 -10 22 -18 22 -8 0 -14 10 -14 25
0 18 -5 25 -20 25 -14 0 -20 7 -20 21 0 12 -8 23 -19 26 -11 3 -22 16 -25 29
-4 13 -13 24 -21 24 -8 0 -15 8 -15 19 0 10 -9 21 -20 24 -12 3 -20 14 -20 26
0 14 -6 21 -20 21 -13 0 -18 5 -13 16 4 10 -1 17 -14 20 -11 3 -26 21 -33 40
-9 21 -20 33 -29 32 -10 -2 -17 6 -19 20 -2 12 -8 22 -13 22 -5 0 -9 7 -9 15
0 8 -7 15 -15 15 -8 0 -15 9 -15 19 0 11 -9 22 -19 26 -10 3 -22 16 -25 29 -3
13 -15 26 -26 29 -12 3 -20 13 -20 26 0 12 -6 21 -15 21 -8 0 -15 9 -15 20 0
11 -7 20 -15 20 -9 0 -12 6 -9 15 4 10 0 15 -15 15 -15 0 -21 6 -21 21 0 12
-8 23 -20 26 -11 3 -20 12 -20 19 0 8 -4 14 -10 14 -5 0 -10 8 -10 19 0 10 -9
21 -20 24 -12 3 -20 14 -20 26 0 12 -6 21 -15 21 -8 0 -15 7 -15 15 0 8 -7 15
-15 15 -8 0 -15 9 -15 20 0 11 -6 20 -14 20 -8 0 -17 11 -20 25 -4 14 -13 25
-20 25 -8 0 -17 13 -21 29 -4 20 -11 28 -21 24 -9 -3 -14 1 -14 11 0 9 -7 19
-16 23 -8 3 -13 11 -10 18 2 7 -4 15 -15 18 -11 3 -19 14 -19 25 0 11 -9 22
-20 25 -12 3 -20 14 -20 26 0 14 -6 21 -20 21 -15 0 -22 9 -26 30 -4 17 -13
30 -20 30 -8 0 -14 9 -14 20 0 11 -6 20 -12 20 -7 1 -22 13 -33 27 -11 14 -28
34 -37 44 -10 11 -18 22 -18 27 0 4 -12 18 -25 31 -14 13 -25 29 -25 36 0 7
-9 15 -20 18 -13 3 -18 10 -14 21 4 10 1 16 -10 16 -8 0 -26 18 -38 39 -13 22
-31 42 -40 45 -11 2 -16 10 -12 19 3 10 -3 20 -15 27 -12 6 -21 19 -21 29 0
11 -9 21 -21 24 -12 3 -18 10 -14 16 3 6 1 11 -5 11 -6 0 -15 11 -20 25 -5 14
-14 25 -20 25 -5 0 -10 6 -10 14 0 7 -10 16 -21 19 -15 4 -20 11 -15 22 4 12
0 19 -15 22 -12 4 -18 11 -15 20 4 9 -1 17 -14 20 -11 3 -20 14 -20 24 0 11
-7 19 -16 19 -9 0 -21 14 -27 30 -6 17 -19 33 -29 36 -10 3 -18 14 -18 24 0
10 -9 21 -19 25 -10 3 -22 16 -25 29 -3 13 -15 26 -27 29 -15 4 -20 11 -15 22
4 10 -3 19 -19 27 -14 6 -25 19 -25 29 0 10 -9 20 -19 24 -10 3 -22 16 -25 29
-3 13 -15 26 -26 29 -12 3 -20 14 -20 25 0 12 -9 23 -21 27 -12 4 -18 12 -15
21 3 8 -1 14 -9 14 -8 0 -17 11 -21 25 -3 14 -12 25 -20 25 -8 0 -14 9 -14 20
0 11 -7 20 -15 20 -8 0 -15 9 -15 20 0 13 -7 20 -20 20 -13 0 -20 7 -20 20 0
11 -6 23 -14 26 -8 3 -17 16 -20 29 -4 16 -11 22 -21 19 -10 -4 -15 0 -15 15
0 11 -9 25 -20 31 -11 6 -20 17 -20 25 0 8 -5 15 -10 15 -6 0 -15 11 -20 25
-5 14 -16 25 -25 25 -8 0 -15 9 -15 20 0 11 -7 20 -15 20 -8 0 -15 7 -15 15 0
8 -7 15 -15 15 -14 0 -19 11 -16 38 1 6 -7 12 -19 12 -14 0 -20 7 -20 21 0 12
-8 23 -19 26 -11 3 -21 15 -23 27 -2 11 -9 20 -16 19 -6 -2 -14 8 -18 22 -3
14 -12 25 -20 25 -8 0 -14 7 -14 15 0 9 -7 18 -16 22 -8 3 -13 12 -10 19 3 8
-1 14 -9 14 -8 0 -15 9 -15 21 0 11 -4 18 -8 15 -9 -5 -42 29 -42 43 0 5 -5
11 -11 13 -6 2 -17 21 -24 42 -12 35 -12 39 5 43 11 3 20 16 22 32 2 18 10 27
25 29 14 2 23 11 25 25 2 16 9 21 25 19 16 -2 22 3 25 20 2 17 11 24 31 26 15
2 27 9 27 18 0 8 7 14 15 14 9 0 18 7 21 15 4 8 13 15 20 15 8 0 19 11 24 25
6 15 17 25 29 25 10 0 21 9 24 20 3 12 14 20 26 20 11 0 25 9 31 20 6 11 17
20 26 20 8 0 19 11 24 25 5 14 13 25 17 24 23 -4 33 3 33 21 0 15 7 20 25 20
16 0 25 6 25 15 0 8 7 15 15 15 8 0 15 5 15 10 0 6 7 10 16 10 9 0 18 9 21 20
3 11 14 20 24 20 11 0 19 7 19 15 0 8 7 15 15 15 9 0 27 11 41 25 14 14 29 25
34 25 6 0 10 7 10 15 0 8 9 15 19 15 11 0 23 9 26 20 4 11 15 20 27 20 11 0
22 8 25 20 3 13 14 20 29 20 17 0 24 6 24 20 0 15 7 20 25 20 18 0 25 5 25 20
0 14 7 20 24 20 15 0 26 7 29 20 3 13 10 18 21 14 11 -4 16 -1 16 10 0 9 7 16
15 16 9 0 21 11 27 25 6 14 17 25 25 25 8 0 24 11 37 25 13 14 29 25 35 25 6
0 14 7 17 15 4 8 12 15 20 15 8 0 14 7 14 15 0 8 11 17 25 21 16 4 25 13 25
25 0 11 7 19 18 19 9 0 23 9 30 20 7 11 21 20 32 20 12 0 20 7 20 16 0 9 14
21 30 27 17 6 30 17 30 23 0 7 14 18 30 26 17 7 30 21 30 30 0 12 8 18 21 18
12 0 23 8 26 20 3 13 14 20 29 20 15 0 24 6 24 15 0 9 8 18 18 22 9 3 29 19
43 35 14 15 33 28 41 28 9 0 18 9 21 20 3 11 13 20 24 20 10 0 23 10 28 22 6
13 19 25 30 27 11 2 24 9 28 17 4 8 15 14 22 14 8 0 15 7 15 16 0 9 9 18 20
21 10 3 22 14 26 25 3 11 12 17 20 14 7 -3 18 4 24 14 6 11 17 20 25 20 8 0
15 6 15 14 0 8 11 17 25 20 16 4 25 13 25 26 0 13 7 20 20 20 10 0 24 9 30 20
6 11 17 20 25 20 8 0 15 7 15 16 0 10 5 14 15 10 11 -4 19 3 25 20 6 16 16 24
27 22 12 -2 19 4 21 19 2 15 11 23 30 25 19 2 28 10 30 26 2 14 10 22 24 22
11 0 22 8 25 20 3 11 14 20 24 20 11 0 19 7 19 15 0 8 9 15 20 15 12 0 20 7
20 16 0 9 9 18 20 21 11 3 20 12 20 20 0 8 4 12 9 9 14 -9 41 4 41 20 0 8 11
19 25 24 14 5 25 16 25 25 0 9 9 15 21 15 12 0 23 8 26 20 3 13 14 20 29 20
15 0 24 6 24 16 0 12 9 14 43 12 37 -3 42 -6 45 -30z m-498 -63 c0 -8 -4 -15
-10 -15 -5 0 -10 -7 -10 -15 0 -8 -7 -15 -16 -15 -18 0 -44 -23 -44 -39 0 -6
-7 -8 -16 -4 -10 4 -17 -1 -21 -16 -3 -12 -13 -21 -25 -21 -11 0 -22 -9 -25
-20 -3 -11 -12 -20 -19 -20 -8 0 -19 -9 -26 -20 -7 -11 -21 -20 -30 -20 -12 0
-18 -8 -18 -21 0 -16 -4 -19 -20 -14 -14 5 -20 2 -20 -9 0 -9 -7 -16 -15 -16
-8 0 -15 -7 -15 -15 0 -8 -5 -15 -11 -15 -7 0 -22 -11 -35 -25 -13 -14 -28
-25 -34 -25 -6 0 -13 -7 -16 -15 -4 -8 -13 -15 -20 -15 -8 0 -19 -11 -24 -25
-6 -17 -16 -25 -27 -23 -11 2 -22 -6 -28 -19 -5 -13 -18 -23 -27 -23 -10 0
-18 -7 -18 -15 0 -8 -7 -15 -15 -15 -9 0 -18 -7 -21 -15 -4 -8 -13 -15 -20
-15 -8 0 -17 -7 -20 -15 -4 -8 -12 -15 -19 -15 -7 0 -21 -11 -31 -25 -10 -14
-25 -25 -32 -25 -7 0 -15 -7 -18 -15 -4 -8 -12 -15 -20 -15 -8 0 -14 -6 -14
-14 0 -8 -11 -17 -25 -20 -14 -4 -25 -13 -25 -21 0 -8 -8 -15 -18 -15 -11 0
-24 -11 -30 -25 -6 -14 -18 -25 -27 -25 -8 0 -15 -7 -15 -16 0 -8 -4 -13 -8
-10 -5 3 -23 -8 -41 -24 -18 -17 -36 -30 -41 -30 -5 0 -16 -10 -25 -22 -8 -13
-21 -23 -28 -23 -6 0 -16 -10 -22 -22 -6 -14 -17 -21 -30 -20 -14 1 -19 -3
-17 -15 2 -13 -4 -18 -23 -18 -16 0 -25 -6 -25 -15 0 -8 -4 -15 -10 -15 -6 0
-10 92 -10 255 l0 254 73 3 72 3 3 88 3 87 89 0 90 0 0 80 0 80 70 0 70 0 0
29 c0 15 3 49 6 75 l7 46 358 0 c312 0 359 -2 359 -15z m-8500 -70 l0 -75 75
0 75 0 0 -80 0 -80 85 0 85 0 0 -85 0 -85 75 0 75 0 0 -415 0 -415 -32 -2
c-18 0 -52 -2 -75 -2 l-43 -1 0 -102 0 -103 -85 0 -85 0 0 -80 0 -79 -72 -3
-73 -3 0 -78 0 -77 -377 0 -378 0 0 80 0 80 -80 0 -80 0 0 81 0 81 -77 -4 -78
-3 1 113 1 112 -79 0 -78 0 0 385 0 385 75 0 75 0 0 64 c0 35 3 84 6 110 l7
46 73 0 73 0 3 78 3 77 83 3 82 3 0 74 0 75 370 0 370 0 0 -75z m6457 -2671
c-3 -3 -12 -4 -19 -1 -8 3 -5 6 6 6 11 1 17 -2 13 -5z m3846 -2724 c3 -11 5
-212 5 -447 l1 -428 -52 -5 -52 -5 -3 -77 -3 -78 -99 0 -99 0 -3 48 -3 47 -52
3 -53 3 0 70 0 69 -54 0 c-58 0 -66 7 -66 60 0 26 -3 28 -55 35 l-55 6 0 50
c0 34 -4 49 -12 48 -7 -1 -28 -1 -45 0 -26 1 -33 5 -33 21 0 31 29 70 52 70
11 0 22 9 25 20 3 11 14 20 24 20 11 0 22 6 25 14 3 8 21 22 40 31 19 9 34 22
34 30 0 9 10 15 25 15 18 0 26 7 31 25 4 17 13 25 28 25 15 0 27 9 34 25 7 15
20 25 32 25 11 0 27 11 36 25 9 14 22 25 29 25 8 0 17 9 20 20 3 11 14 20 23
20 10 0 25 9 35 20 9 11 24 20 32 20 8 0 15 9 15 20 0 14 7 20 24 20 17 0 26
7 30 25 5 18 13 25 31 25 18 0 25 5 25 20 0 15 7 20 24 20 16 0 27 7 31 20 8
26 21 26 28 0z"/>
<path d="M8772 17560 c0 -14 2 -19 5 -12 2 6 2 18 0 25 -3 6 -5 1 -5 -13z"/>
<path d="M6220 15655 l0 -75 83 0 83 0 3 75 2 75 -85 0 -86 0 0 -75z"/>
<path d="M8213 15718 c1 -7 7 -16 12 -20 6 -5 6 -8 -1 -8 -6 0 -12 -24 -13
-55 l-2 -55 85 0 86 0 0 75 0 75 -85 0 c-63 0 -84 -3 -82 -12z"/>
<path d="M5520 15556 l0 -35 80 0 80 0 0 34 0 35 -80 0 -80 0 0 -34z"/>
<path d="M8940 15563 c0 -16 4 -23 8 -17 5 8 25 9 62 3 87 -12 90 -12 90 16 0
25 -1 25 -80 25 l-80 0 0 -27z m67 1 c-3 -3 -12 -4 -19 -1 -8 3 -5 6 6 6 11 1
17 -2 13 -5z"/>
<path d="M5568 15453 c6 -2 18 -2 25 0 6 3 1 5 -13 5 -14 0 -19 -2 -12 -5z"/>
<path d="M5618 15453 c7 -3 16 -2 19 1 4 3 -2 6 -13 5 -11 0 -14 -3 -6 -6z"/>
<path d="M3205 14653 c27 -3 55 -9 62 -15 8 -6 16 -8 20 -4 3 3 1 6 -6 6 -7 0
-9 5 -6 10 4 6 -17 9 -57 8 -60 -2 -61 -2 -13 -5z"/>
<path d="M3315 14630 c3 -5 8 -10 11 -10 2 0 4 5 4 10 0 6 -5 10 -11 10 -5 0
-7 -4 -4 -10z"/>
<path d="M11728 14653 c34 -2 88 -2 120 0 31 2 3 3 -63 3 -66 0 -92 -1 -57 -3z"/>
<path d="M11750 14631 l-25 -8 25 -4 c33 -6 70 1 70 12 0 11 -34 10 -70 0z"/>
<path d="M11845 14630 c-18 -8 -17 -9 8 -9 15 -1 27 4 27 9 0 12 -8 12 -35 0z"/>
<path d="M11683 14623 c9 -2 23 -2 30 0 6 3 -1 5 -18 5 -16 0 -22 -2 -12 -5z"/>
<path d="M11420 14594 c-14 -8 -17 -13 -8 -10 12 3 15 1 11 -10 -5 -12 -1 -13
21 -3 14 7 26 17 26 22 0 5 -7 4 -15 -3 -13 -11 -14 -10 -9 4 7 19 6 19 -26 0z"/>
<path d="M12036 14473 c-6 -14 -5 -15 5 -6 7 7 10 15 7 18 -3 3 -9 -2 -12 -12z"/>
<path d="M11205 14290 c-3 -6 1 -7 9 -4 18 7 21 14 7 14 -6 0 -13 -4 -16 -10z"/>
<path d="M11124 14279 c-2 -4 4 -13 13 -20 12 -10 15 -10 9 -1 -5 8 1 16 16
21 22 9 22 10 -5 8 -16 -1 -30 -4 -33 -8z"/>
<path d="M11141 14224 c0 -11 3 -14 6 -6 3 7 2 16 -1 19 -3 4 -6 -2 -5 -13z"/>
<path d="M12085 14070 c-3 -5 -1 -10 4 -10 6 0 11 5 11 10 0 6 -2 10 -4 10 -3
0 -8 -4 -11 -10z"/>
<path d="M15470 10694 c-14 -2 -85 -8 -159 -15 -113 -10 -134 -14 -138 -29 -3
-10 -13 -20 -24 -23 -15 -4 -18 -11 -13 -36 7 -32 5 -34 -47 -45 -26 -6 -26
-6 -21 -78 3 -40 10 -76 16 -81 11 -7 112 -1 149 9 13 4 17 16 17 58 0 48 3
54 28 65 15 7 70 15 123 18 113 7 107 14 116 -124 5 -84 4 -93 -11 -93 -25 0
-47 -26 -49 -57 -2 -32 -13 -43 -44 -43 -14 0 -23 -6 -23 -15 0 -8 -4 -15 -10
-15 -5 0 -10 -5 -10 -12 0 -16 -49 -58 -67 -58 -7 0 -13 -11 -13 -25 0 -18 -7
-26 -25 -31 -14 -3 -25 -13 -25 -23 0 -9 -13 -22 -29 -28 -23 -8 -28 -15 -24
-31 3 -14 -1 -22 -16 -27 -18 -6 -20 -13 -17 -83 2 -42 4 -94 5 -115 l1 -39
78 4 c67 3 435 41 530 54 l32 5 0 63 c0 105 4 103 -206 83 -229 -22 -220 -23
-229 10 -5 21 -1 31 21 50 15 12 31 23 35 23 4 0 11 9 14 20 3 11 12 20 20 20
7 0 15 9 18 21 3 11 11 19 19 18 37 -5 46 2 52 41 5 33 11 41 33 47 37 9 54
28 62 66 5 25 14 34 40 42 l34 10 -6 125 c-3 77 -9 126 -16 128 -6 2 -11 12
-11 23 0 10 -3 18 -7 17 -5 -1 -21 4 -36 10 -16 7 -35 12 -43 12 -8 0 -14 10
-14 24 0 13 -7 26 -15 30 -8 3 -15 12 -15 21 0 15 -16 17 -80 9z"/>
<path d="M14515 10240 c3 -5 2 -10 -4 -10 -7 0 -8 -37 -4 -109 6 -116 2 -130
-42 -145 -18 -5 -20 -14 -17 -85 l3 -79 -45 -3 -45 -4 -6 50 c-15 129 -12 122
-53 122 l-37 -1 -6 91 c-10 141 -14 153 -53 153 -42 0 -98 -19 -90 -31 3 -5 1
-9 -5 -9 -12 0 -3 -221 10 -256 4 -13 19 -23 36 -26 64 -11 70 -19 72 -90 l1
-37 53 -3 52 -3 3 -47 c2 -34 7 -48 18 -48 7 0 14 -7 14 -15 0 -8 6 -15 13
-16 6 0 23 -2 35 -3 13 -2 30 3 37 11 8 7 18 13 24 13 7 0 11 25 11 65 l0 65
33 0 c53 1 67 19 67 87 l0 60 41 7 42 7 -7 122 c-10 189 -5 177 -87 177 -44 0
-68 -4 -64 -10z"/>
<path d="M14840 9850 c0 -5 -7 -10 -15 -10 -12 0 -15 -14 -15 -63 0 -59 2 -64
29 -80 40 -24 106 -22 131 3 15 15 20 33 20 71 0 79 -9 89 -85 89 -37 0 -65
-4 -65 -10z"/>
<path d="M15230 9310 c-14 -5 -82 -12 -152 -15 l-128 -7 0 -84 0 -84 -66 0
-67 0 5 -84 5 -83 -74 -6 c-41 -3 -77 -8 -80 -10 -2 -3 1 -67 7 -143 6 -75 7
-141 3 -145 -4 -4 -41 -9 -82 -11 l-73 -3 -2 -80 -1 -80 -79 -3 -79 -3 7 -170
c4 -94 9 -184 13 -200 l6 -29 -54 -1 c-30 0 -76 -4 -103 -7 l-49 -7 2 -90 c1
-49 9 -128 17 -174 7 -46 14 -88 14 -94 0 -9 134 -5 181 5 11 2 15 -13 17 -75
l3 -77 85 7 c103 7 104 6 104 -92 l0 -70 122 7 c68 3 170 13 228 22 58 8 138
18 178 21 l73 7 -7 87 -7 88 114 9 114 9 -4 76 -3 77 63 7 c107 11 101 5 93
100 l-7 83 78 7 77 8 -4 90 -3 90 35 2 c19 0 59 2 87 3 l53 2 -6 108 c-3 59
-12 125 -19 147 -7 22 -16 79 -19 125 -6 74 -27 279 -43 419 l-5 44 -78 -6
-78 -5 -6 45 c-3 25 -6 63 -6 85 l0 39 -57 -5 c-32 -3 -100 -8 -152 -12 -52
-3 -100 -8 -107 -11 -11 -4 -14 6 -14 38 0 112 -11 129 -70 109z m-15 -190
c-16 -4 -64 -7 -105 -7 -70 0 -72 1 -25 7 28 4 75 7 105 7 44 1 49 -1 25 -7z
m-213 -65 c-2 -33 1 -61 8 -70 6 -8 9 -19 6 -24 -4 -6 11 -9 41 -6 219 19 341
27 358 22 11 -2 -10 -5 -47 -6 l-68 -1 0 -51 c0 -36 3 -48 12 -43 8 5 9 2 5
-9 -6 -15 2 -17 61 -17 38 0 73 5 79 11 7 7 15 6 26 -5 10 -11 17 -48 22 -128
3 -62 8 -124 10 -138 2 -14 7 -71 10 -127 4 -57 11 -101 15 -98 5 3 11 -1 13
-7 4 -10 8 -9 17 2 10 13 11 13 7 0 -2 -9 -18 -16 -40 -18 -36 -3 -37 -4 -37
-43 0 -32 -3 -39 -20 -39 -17 0 -20 -7 -20 -42 0 -28 -3 -38 -9 -30 -10 16
-47 11 -44 -5 3 -15 -29 -21 -157 -29 l-106 -6 8 -67 c4 -36 7 -85 7 -108 l1
-43 -65 0 c-36 0 -64 -3 -64 -7 1 -5 1 -36 0 -70 l-1 -63 -82 0 c-46 -1 -141
-5 -213 -10 -71 -5 -131 -7 -132 -6 -2 1 -5 31 -8 67 -3 35 -9 105 -14 154 -4
50 -6 93 -4 97 2 4 40 10 84 14 l81 7 -6 36 c-3 20 -6 63 -7 96 0 35 -3 52 -8
42 -3 -10 -8 28 -9 84 -2 74 1 105 10 111 7 4 36 8 63 8 28 0 61 3 74 7 l24 6
-7 149 c-3 82 -9 169 -13 193 -4 31 -2 45 6 45 7 0 11 -22 11 -60 0 -33 4 -60
10 -60 6 0 10 -7 10 -15 0 -8 -4 -15 -8 -15 -4 0 -6 -16 -4 -35 4 -33 22 -51
22 -22 0 9 11 13 29 12 21 -1 28 2 24 12 -6 15 -20 17 -25 3 -2 -6 -8 -6 -18
0 -13 8 -12 10 3 10 9 0 17 5 17 10 0 17 28 11 39 -7 6 -10 11 -15 11 -11 0 4
-9 23 -20 43 -24 43 -25 52 -5 35 17 -14 17 -14 32 14 9 17 11 15 12 -15 1
-41 18 -141 20 -118 3 41 -21 275 -29 283 -12 12 -14 156 -2 156 4 0 5 -25 4
-55z m285 -37 c-3 -8 -6 -5 -6 6 -1 11 2 17 5 13 3 -3 4 -12 1 -19z m340 -60
c-3 -7 -5 -2 -5 12 0 14 2 19 5 13 2 -7 2 -19 0 -25z m-130 16 c-3 -3 -12 -4
-19 -1 -8 3 -5 6 6 6 11 1 17 -2 13 -5z m76 -1 c-7 -2 -19 -2 -25 0 -7 3 -2 5
12 5 14 0 19 -2 13 -5z m-678 -53 c-3 -5 -12 -10 -18 -10 -7 0 -6 4 3 10 19
12 23 12 15 0z m48 3 c-7 -2 -19 -2 -25 0 -7 3 -2 5 12 5 14 0 19 -2 13 -5z
m577 -13 c0 -5 -2 -10 -4 -10 -3 0 -8 5 -11 10 -3 6 -1 10 4 10 6 0 11 -4 11
-10z m15 -50 c10 -11 13 -20 7 -20 -6 0 -12 3 -15 8 -2 4 -3 2 -2 -3 2 -6 -1
-28 -5 -50 l-8 -40 -1 47 c0 25 -4 53 -7 62 -9 22 9 20 31 -4z m-574 -23 c-10
-9 -11 -8 -5 6 3 10 9 15 12 12 3 -3 0 -11 -7 -18z m-37 -72 c3 -8 1 -15 -4
-15 -6 0 -10 7 -10 15 0 8 2 15 4 15 2 0 6 -7 10 -15z m-225 -299 c-9 -8 -129
-13 -129 -5 0 4 28 9 63 11 61 3 74 2 66 -6z m-116 -188 c2 -49 0 -88 -4 -88
-5 0 -9 26 -9 58 0 31 -2 89 -5 127 -4 56 -3 62 4 30 5 -22 11 -79 14 -127z
m43 79 c8 3 15 0 15 -6 3 -26 4 -30 13 -38 5 -4 6 -3 2 4 -11 20 9 23 22 2 10
-15 10 -19 -2 -19 -7 0 -16 -9 -19 -21 -3 -13 -1 -19 6 -16 7 3 11 10 10 16
-2 6 3 11 10 11 9 0 14 -13 15 -35 1 -27 -3 -35 -16 -35 -30 0 -62 12 -56 21
3 5 0 17 -5 26 -6 11 -11 13 -11 5 0 -7 -5 -10 -10 -7 -6 4 -10 25 -9 48 2 45
10 69 16 50 3 -7 11 -9 19 -6z m908 -52 c7 -27 1 -45 -15 -45 -5 0 -9 16 -9
35 0 41 15 47 24 10z m-864 -122 c-11 -8 -18 -19 -15 -24 11 -16 -12 -10 -26
8 -12 15 -12 16 3 10 10 -3 20 -2 23 4 4 5 3 9 -2 8 -26 -5 -35 1 -23 15 9 12
17 13 36 4 24 -11 24 -11 4 -25z m-40 -43 c0 -5 -4 -10 -10 -10 -5 0 -10 5
-10 10 0 6 5 10 10 10 6 0 10 -4 10 -10z m20 -20 c0 -5 -10 -10 -22 -9 -22 0
-22 1 -3 9 11 5 21 9 23 9 1 1 2 -3 2 -9z m-97 -57 c-7 -2 -13 -9 -13 -14 0
-6 5 -7 12 -3 7 4 8 3 4 -4 -10 -16 -37 -15 -33 1 1 6 -6 12 -15 11 -10 0 -36
-1 -59 -2 l-40 -2 5 -47 c4 -34 3 -42 -3 -28 -5 11 -10 34 -10 52 -1 29 2 32
32 36 48 6 134 6 120 0z m-136 -135 c-3 -8 -6 -5 -6 6 -1 11 2 17 5 13 3 -3 4
-12 1 -19z m666 -18 c-13 -5 -23 -14 -23 -20 0 -6 -4 -9 -10 -5 -18 11 2 35
29 34 25 0 25 0 4 -9z m-666 -47 c-3 -10 -5 -2 -5 17 0 19 2 27 5 18 2 -10 2
-26 0 -35z m673 16 c0 -6 -4 -7 -10 -4 -5 3 -10 11 -10 16 0 6 5 7 10 4 6 -3
10 -11 10 -16z m-33 -31 c-3 -8 -6 -5 -6 6 -1 11 2 17 5 13 3 -3 4 -12 1 -19z
m120 -140 c-3 -8 -6 -5 -6 6 -1 11 2 17 5 13 3 -3 4 -12 1 -19z m-50 -74 c-3
-3 -12 -4 -19 -1 -8 3 -5 6 6 6 11 1 17 -2 13 -5z m-510 -36 c-3 -7 -5 -2 -5
12 0 14 2 19 5 13 2 -7 2 -19 0 -25z m386 25 c-7 -2 -21 -2 -30 0 -10 3 -4 5
12 5 17 0 24 -2 18 -5z"/>
<path d="M15150 8750 l0 -80 70 0 c60 0 70 3 70 18 0 15 2 15 10 2 7 -10 9 8
8 60 l-3 75 -77 3 -78 3 0 -81z"/>
<path d="M14908 8653 c12 -2 32 -2 45 0 12 2 2 4 -23 4 -25 0 -35 -2 -22 -4z"/>
<path d="M15108 8572 c-27 -3 -28 -5 -28 -62 0 -90 0 -90 92 -90 l81 0 -5 71
c-4 45 -11 74 -19 80 -13 8 -58 8 -121 1z"/>
<path d="M14870 8277 c-11 -9 -14 -29 -12 -84 l4 -73 79 0 80 0 -3 83 -3 82
-65 2 c-40 2 -71 -2 -80 -10z"/>
<path d="M14772 8043 l-32 -4 6 -72 c4 -40 10 -76 15 -81 4 -5 37 -5 76 0 l68
9 0 70 c0 39 -4 73 -10 77 -10 8 -64 8 -123 1z"/>
<path d="M6778 10565 c-5 -5 -8 -30 -8 -57 l0 -48 -55 0 -54 0 -3 -62 -3 -63
-55 -3 c-30 -2 -59 -4 -65 -6 -5 -1 -8 -37 -6 -84 l3 -82 -90 0 -90 0 -6 -132
c-3 -73 -7 -204 -10 -290 l-4 -158 49 0 c48 0 49 -1 49 -30 0 -29 1 -30 50
-30 l50 0 0 -61 0 -61 63 3 62 4 3 -52 3 -53 60 0 59 0 0 -50 c0 -48 1 -49 33
-55 19 -4 55 -4 80 -2 l47 6 0 -55 0 -54 49 0 50 0 3 -51 3 -51 123 1 122 2 0
-396 0 -396 -77 2 -78 2 -3 -77 -3 -77 -102 2 -102 2 -3 -82 -3 -81 -354 0
-354 0 -3 83 -3 82 -103 -3 -104 -2 3 107 3 108 -91 0 c-51 0 -93 -2 -95 -5
-2 -3 -2 -56 0 -117 l3 -113 65 0 64 0 0 -85 0 -85 78 0 77 0 0 -72 0 -73 138
-3 137 -3 0 -139 0 -140 75 0 75 0 0 -85 0 -85 80 0 80 0 0 -70 0 -70 151 0
151 0 -4 -80 c-2 -43 0 -79 5 -80 4 0 205 0 447 0 l440 0 0 80 0 80 145 0 145
0 0 70 0 70 80 0 c69 0 80 2 81 18 0 9 1 46 2 82 l2 65 78 0 77 0 0 143 0 142
135 0 135 0 0 80 0 80 85 0 85 0 2 63 c1 34 2 70 1 80 0 14 10 17 54 17 l53 0
0 120 0 120 -95 0 -95 0 0 -107 0 -108 -95 0 -95 1 0 -83 0 -83 -375 0 -375 0
0 80 0 80 -135 0 -135 0 0 80 0 80 -58 0 -59 0 -6 238 c-3 130 -7 303 -7 384
l-1 147 148 3 148 3 3 48 3 47 50 0 49 0 0 55 0 55 70 0 70 0 0 55 0 55 70 0
70 0 0 56 0 57 70 -5 69 -5 3 76 3 76 82 0 82 0 3 308 3 307 -82 0 -82 0 -3
82 -3 81 -72 -2 -73 -2 0 65 0 66 -52 0 -53 0 1 50 2 50 -317 0 c-174 0 -467
3 -651 6 -184 4 -338 3 -342 -1z m957 -332 l0 -68 68 0 67 0 0 -67 0 -68 -342
0 c-189 0 -393 -3 -455 -7 l-111 -6 -4 69 c-3 48 0 72 9 80 8 7 13 35 13 73
l0 61 378 0 377 0 0 -67z m120 -2685 l125 4 0 -61 0 -61 40 0 40 0 0 -75 0
-75 -100 0 -100 0 0 -65 0 -65 -387 0 c-214 0 -405 -3 -425 -6 l-38 -7 0 72 0
71 -115 0 -115 0 0 70 0 70 30 0 c17 0 30 5 31 13 0 10 2 10 6 0 3 -8 22 -12
51 -12 30 1 37 4 20 6 -38 6 -36 21 2 17 30 -4 30 -3 30 46 0 33 -4 50 -12 51
-38 3 48 17 108 18 79 1 84 5 84 67 l0 34 298 2 297 3 3 -61 3 -60 124 4z
m-1008 -90 c-3 -7 -5 -2 -5 12 0 14 2 19 5 13 2 -7 2 -19 0 -25z"/>
<path d="M11724 9005 c-4 -8 -15 -15 -25 -15 -10 0 -19 -7 -19 -15 0 -8 -11
-17 -25 -21 -14 -3 -22 -10 -19 -15 3 -5 0 -9 -5 -9 -7 0 -11 -29 -11 -75 0
-58 -4 -77 -15 -81 -8 -4 -12 -10 -9 -16 3 -5 -3 -12 -15 -15 -24 -6 -29 -43
-6 -43 9 0 15 -9 15 -25 0 -25 50 -85 70 -85 17 0 50 39 50 59 0 10 7 21 15
25 8 3 15 9 14 13 -1 4 -1 20 0 36 1 22 6 27 26 27 17 0 25 -5 25 -18 0 -10 8
-25 18 -34 40 -40 52 -56 52 -71 0 -10 7 -17 15 -17 8 0 15 -7 15 -15 0 -9 7
-18 15 -21 8 -4 15 -12 15 -20 0 -8 5 -14 10 -14 6 0 10 -7 10 -16 0 -8 4 -13
9 -10 4 3 13 -6 19 -19 7 -14 16 -25 22 -25 5 0 10 -5 10 -11 0 -7 11 -22 25
-35 14 -13 25 -30 25 -38 0 -8 3 -16 8 -18 10 -4 42 -63 42 -77 0 -6 -7 -11
-15 -11 -9 0 -18 -7 -21 -15 -4 -8 -10 -12 -15 -9 -5 3 -9 0 -9 -7 0 -7 -7
-20 -16 -30 -15 -16 -14 -20 5 -40 12 -13 21 -29 21 -36 0 -7 6 -13 14 -13 8
0 16 -7 20 -15 11 -30 61 -11 114 43 17 17 34 32 38 32 4 0 14 8 23 18 9 10
24 21 34 25 9 3 17 13 17 22 0 9 9 15 21 15 12 0 23 8 26 18 2 11 20 25 38 32
19 7 36 19 39 27 3 7 12 13 21 13 11 0 15 10 15 35 0 24 -5 35 -15 35 -8 0
-15 9 -15 20 0 13 -7 20 -20 20 -11 0 -23 7 -26 15 -4 8 -10 15 -15 15 -12 0
-49 -38 -49 -50 0 -5 -9 -10 -19 -10 -10 0 -21 -7 -25 -15 -8 -21 -56 2 -56
27 0 10 -7 18 -15 18 -8 0 -17 11 -21 25 -3 14 -12 25 -20 25 -8 0 -14 8 -14
19 0 10 -9 21 -20 24 -12 3 -20 14 -20 26 0 12 -6 21 -15 21 -8 0 -15 8 -15
18 0 9 -9 23 -20 30 -11 7 -20 21 -20 32 0 11 -6 20 -14 20 -7 0 -21 16 -30
35 -9 19 -24 35 -32 35 -8 0 -17 13 -20 30 -4 17 -13 30 -20 30 -8 0 -14 6
-14 13 0 7 -11 23 -25 35 -14 13 -30 34 -35 47 -5 14 -16 25 -25 25 -8 0 -17
11 -21 24 -4 16 -15 26 -36 30 -43 9 -48 8 -54 -9z"/>
<path d="M11263 8164 c-49 -48 -53 -67 -18 -90 14 -9 25 -24 25 -34 0 -10 7
-20 15 -24 8 -3 15 -12 15 -20 0 -8 7 -19 15 -24 9 -4 18 -25 22 -45 4 -30 3
-37 -11 -37 -22 0 -20 -26 4 -50 11 -11 20 -27 20 -35 0 -8 6 -15 14 -15 24 0
31 -58 10 -81 -28 -31 -80 -17 -67 17 3 8 -1 14 -9 14 -7 0 -22 14 -32 31 -17
29 -19 30 -72 23 -50 -6 -54 -5 -54 15 0 11 -6 21 -13 21 -7 0 -18 14 -24 30
-6 17 -18 30 -27 30 -9 0 -16 7 -16 15 0 7 -6 18 -13 22 -8 4 -17 17 -21 28
-7 18 -9 18 -19 4 -7 -8 -20 -18 -29 -22 -10 -3 -18 -11 -18 -17 0 -6 -11 -15
-25 -20 -28 -11 -32 -31 -10 -50 8 -7 15 -18 15 -25 0 -12 21 -40 58 -80 11
-11 22 -28 25 -38 4 -10 11 -15 17 -12 5 3 10 -1 10 -10 0 -9 7 -23 16 -32 13
-13 22 -14 53 -4 50 14 81 14 81 -1 1 -22 36 -62 44 -49 4 6 18 11 32 11 14 0
27 7 30 15 9 23 32 18 50 -10 9 -14 23 -25 30 -25 8 0 17 -7 20 -15 7 -18 61
-9 85 14 20 20 30 59 17 67 -5 3 -13 16 -19 27 -5 12 -14 29 -21 38 -9 13 -6
23 15 51 33 43 33 43 2 84 -32 42 -32 63 1 91 28 24 26 58 -4 67 -16 6 -49 63
-44 79 1 4 -3 7 -9 7 -13 0 -49 38 -49 52 0 4 -7 8 -15 8 -8 0 -17 11 -21 24
-8 35 -32 29 -81 -20z"/>
<path d="M11776 8033 c-3 -7 -12 -13 -21 -13 -8 0 -15 -7 -15 -15 0 -8 -4 -15
-10 -15 -5 0 -10 -16 -10 -35 0 -27 8 -45 34 -71 31 -32 38 -35 70 -28 22 4
41 15 48 28 6 11 14 23 19 26 4 3 10 22 14 42 6 30 4 39 -9 44 -9 3 -16 11
-16 18 0 28 -94 45 -104 19z"/>
<path d="M12288 7586 c-14 -12 -33 -26 -42 -29 -9 -4 -16 -11 -16 -16 0 -5 -9
-13 -20 -16 -11 -3 -20 -13 -20 -21 0 -8 -7 -14 -15 -14 -8 0 -24 -9 -35 -20
-11 -11 -24 -20 -28 -20 -12 0 -33 -50 -27 -61 4 -5 11 -9 16 -9 6 0 19 -10
29 -22 13 -17 16 -28 9 -46 -10 -26 -65 -82 -81 -82 -5 0 -8 -12 -6 -27 2 -17
9 -28 18 -28 8 0 16 -10 18 -22 2 -13 10 -23 18 -23 11 0 14 -9 12 -32 -2 -19
-8 -32 -15 -31 -6 2 -21 -9 -31 -22 -11 -14 -27 -25 -36 -25 -22 0 -20 -26 4
-50 11 -11 20 -23 20 -28 0 -4 9 -13 20 -20 11 -7 20 -19 20 -28 0 -18 -39
-63 -55 -64 -19 -1 -55 -48 -49 -64 3 -9 10 -16 15 -16 5 0 14 -11 19 -25 5
-14 17 -28 25 -31 8 -4 15 -14 15 -23 0 -9 11 -25 25 -35 14 -10 25 -25 25
-32 0 -7 9 -18 20 -24 11 -6 18 -15 15 -20 -3 -5 4 -14 15 -20 11 -6 20 -17
20 -24 0 -8 7 -17 16 -20 8 -3 12 -10 9 -16 -3 -6 1 -13 9 -16 9 -3 16 -12 16
-19 0 -7 11 -20 25 -29 14 -9 25 -23 25 -31 0 -8 3 -15 8 -15 4 0 13 -13 20
-29 7 -16 22 -31 32 -34 12 -3 20 -14 20 -26 0 -12 6 -21 15 -21 14 0 20 -12
16 -33 -1 -4 6 -10 14 -13 8 -4 15 -12 15 -20 0 -8 7 -14 15 -14 8 0 15 -7 15
-16 0 -13 7 -15 32 -10 17 3 39 13 47 21 56 51 57 51 84 42 15 -5 27 -15 27
-22 0 -8 9 -17 20 -20 11 -4 20 -15 20 -26 0 -30 60 -20 97 17 16 16 36 30 44
32 8 2 18 10 22 18 4 8 19 14 33 14 14 0 23 -4 20 -9 -3 -5 1 -11 9 -15 8 -3
15 -12 15 -21 0 -8 7 -15 15 -15 8 0 15 -5 15 -11 0 -14 25 -39 40 -39 6 0 13
6 16 14 3 8 11 13 19 10 7 -3 15 4 18 15 3 13 13 21 26 21 12 0 21 5 21 10 0
6 7 10 15 10 8 0 15 7 15 16 0 8 5 12 10 9 6 -3 13 1 16 9 3 9 12 16 20 16 8
0 14 7 14 15 0 8 9 15 20 15 10 0 24 9 30 20 6 11 17 20 26 20 8 0 17 7 20 15
4 8 15 15 25 15 10 0 19 5 19 10 0 6 6 10 14 10 8 0 18 9 21 20 5 15 -2 27
-24 46 -17 14 -30 28 -28 32 1 4 -2 8 -8 9 -27 5 -26 83 1 83 8 0 17 7 20 15
4 8 12 15 19 15 7 0 15 7 19 15 3 8 12 15 21 15 8 0 15 5 15 10 0 6 11 16 25
22 25 11 37 58 15 58 -14 0 -60 46 -60 59 0 6 -7 14 -16 19 -23 13 -13 46 14
50 12 2 22 10 22 18 0 8 7 14 15 14 21 0 65 48 65 70 0 10 -9 20 -19 23 -11 2
-21 15 -23 28 -2 16 -9 23 -20 21 -12 -2 -18 4 -18 16 0 10 -9 27 -20 37 -11
10 -20 26 -20 36 0 10 -9 20 -19 24 -11 3 -24 19 -30 35 -5 17 -17 30 -25 30
-10 0 -16 9 -16 21 0 12 -8 23 -20 26 -11 3 -20 14 -20 24 0 11 -7 19 -16 19
-9 0 -21 14 -27 30 -6 17 -17 30 -24 30 -7 0 -13 9 -13 20 0 13 -7 20 -19 20
-14 0 -21 8 -23 28 -2 16 -9 27 -18 27 -8 0 -15 5 -15 10 0 10 -11 26 -47 66
-10 10 -18 25 -18 33 0 20 -43 29 -56 11 -6 -8 -16 -15 -22 -15 -5 0 -20 -11
-33 -25 -13 -13 -29 -25 -36 -25 -17 0 -62 51 -69 78 -8 28 -25 28 -56 -2 -14
-12 -33 -26 -42 -29 -9 -4 -16 -11 -16 -17 0 -5 -5 -10 -11 -10 -7 0 -18 -8
-25 -17 -13 -17 -15 -17 -28 0 -7 9 -18 17 -24 17 -11 0 -26 29 -23 44 3 12
-19 26 -42 26 -17 0 -29 -7 -68 -42 -10 -10 -19 -15 -19 -12 0 4 -6 1 -14 -5
-11 -9 -20 -7 -40 12 -14 13 -26 30 -26 36 0 15 -25 41 -38 41 -5 0 -20 -11
-34 -24z m192 -186 c0 -5 -5 -10 -11 -10 -5 0 -7 5 -4 10 3 6 8 10 11 10 2 0
4 -4 4 -10z m-150 -21 c0 -15 -18 -19 -23 -6 -3 8 1 14 9 14 8 0 14 -4 14 -8z
m193 3 c3 7 6 0 6 -17 0 -20 -2 -26 -8 -17 -7 11 -10 10 -15 -3 -3 -9 -6 -26
-6 -37 0 -11 -9 -31 -20 -45 -11 -15 -18 -34 -15 -44 5 -14 1 -16 -15 -12 -11
3 -20 9 -20 14 0 5 -7 9 -15 9 -8 0 -15 -6 -15 -14 0 -18 -48 -30 -64 -17 -7
6 -16 8 -19 4 -4 -3 -8 5 -9 18 -4 63 10 94 42 94 8 0 14 6 13 12 -2 7 8 15
22 19 14 3 25 9 25 13 0 13 39 9 44 -5 3 -8 0 -14 -6 -14 -6 0 -9 -2 -6 -5 10
-10 39 8 34 21 -3 8 1 14 10 14 9 0 12 5 8 13 -6 9 -4 9 8 -1 13 -10 17 -10
21 0z m46 -54 c0 -16 -2 -18 -6 -8 -3 8 -11 18 -17 22 -7 5 -4 8 7 8 11 0 17
-7 16 -22z m148 -24 c-3 -3 -12 -4 -19 -1 -8 3 -5 6 6 6 11 1 17 -2 13 -5z
m13 -33 c1 10 3 9 11 -3 5 -10 19 -18 29 -18 11 0 20 -4 20 -10 0 -5 13 -10
29 -10 47 0 79 -37 82 -93 3 -49 16 -62 52 -51 16 5 19 3 14 -10 -4 -9 -3 -15
1 -15 13 3 72 -25 72 -33 0 -4 7 -8 15 -8 10 0 15 -10 15 -27 1 -33 21 -63 42
-63 19 0 39 -45 31 -67 -10 -27 -59 -73 -78 -73 -13 0 -15 -5 -10 -17 4 -10
10 -31 13 -47 3 -19 7 -24 13 -15 13 22 23 1 11 -23 -6 -13 -11 -17 -11 -10
-1 6 -5 12 -11 12 -6 0 -6 -9 -1 -22 11 -30 -4 -69 -30 -75 -11 -3 -18 -11
-16 -17 9 -22 -29 -54 -76 -64 -32 -6 -47 -6 -47 1 0 10 -64 77 -75 77 -8 0
-85 -81 -85 -90 0 -5 -13 -15 -30 -23 -16 -8 -29 -12 -27 -9 1 4 -11 20 -26
36 -15 16 -27 37 -27 47 0 22 -25 25 -37 5 -4 -7 -25 -16 -47 -20 -33 -6 -38
-5 -33 8 4 9 3 15 -1 13 -4 -1 -8 2 -9 6 -1 4 -8 19 -17 32 -8 13 -14 32 -12
42 3 14 -2 19 -22 18 -19 0 -27 6 -33 28 -4 15 -3 25 1 22 5 -3 11 -1 15 5 6
9 -9 15 -30 10 -5 -1 -1 7 8 18 10 11 14 22 10 25 -10 6 -35 -7 -33 -17 0 -3
-4 -14 -9 -24 -9 -15 -10 -15 -11 5 0 12 6 28 14 35 20 20 15 63 -7 62 -12 -1
-17 6 -17 21 0 13 -7 30 -15 39 -8 8 -15 19 -15 25 0 6 -4 11 -10 11 -5 0 -10
7 -10 15 0 8 -4 15 -10 15 -17 0 -11 18 14 43 27 27 55 42 86 46 6 0 10 8 10
17 0 9 -5 12 -12 8 -10 -6 -10 -4 0 7 6 7 12 20 12 29 0 13 -1 13 -10 0 -9
-13 -10 -13 -10 0 0 13 -1 13 -10 0 -8 -13 -10 -12 -10 3 0 9 3 18 8 18 4 1
17 3 30 4 26 3 38 12 28 22 -4 4 -11 1 -16 -7 -8 -13 -10 -12 -10 2 0 24 15
30 30 13 19 -22 32 -18 18 5 -11 17 -10 22 1 29 8 5 21 7 30 4 14 -4 14 -3 1
6 -13 10 -13 12 0 21 22 14 40 12 47 -6 5 -15 7 -15 15 0 7 13 18 15 45 10 26
-5 34 -4 29 5 -4 6 -3 11 3 11 5 0 16 6 23 13 30 30 52 37 66 20 9 -13 12 -14
12 -2z m-395 -101 c-3 -5 -18 -9 -33 -9 l-27 1 30 8 c17 4 31 8 33 9 2 0 0 -3
-3 -9z m55 -32 c0 -6 -7 -5 -15 2 -8 7 -15 17 -15 22 0 6 7 5 15 -2 8 -7 15
-17 15 -22z m-36 -6 c3 -5 -1 -9 -9 -9 -8 0 -12 4 -9 9 3 4 7 8 9 8 2 0 6 -4
9 -8z m-4 -317 c0 -8 -7 -15 -15 -15 -9 0 -12 6 -9 15 4 8 10 15 15 15 5 0 9
-7 9 -15z m32 -17 c-7 -7 -12 -8 -12 -2 0 14 12 26 19 19 2 -3 -1 -11 -7 -17z
m-52 -19 c0 -5 -4 -7 -10 -4 -5 3 -10 1 -10 -5 0 -6 -5 -8 -11 -4 -8 4 -7 9 2
15 19 12 29 11 29 -2z m-50 -9 c0 -5 -6 -10 -12 -10 -8 0 -4 -7 6 -15 16 -12
17 -18 8 -27 -9 -9 -12 -9 -12 1 0 7 -7 20 -16 28 -13 13 -13 17 -2 24 18 12
28 11 28 -1z m830 -110 c0 -5 -5 -10 -11 -10 -5 0 -7 5 -4 10 3 6 8 10 11 10
2 0 4 -4 4 -10z"/>
<path d="M12420 7246 c0 -9 30 -14 35 -6 4 6 -3 10 -14 10 -12 0 -21 -2 -21
-4z"/>
<path d="M12655 7100 c-11 -4 -23 -6 -27 -3 -5 2 -8 -1 -8 -6 0 -6 -7 -11 -15
-11 -9 0 -15 -9 -15 -24 0 -22 -15 -35 -50 -42 -8 -2 -16 -8 -18 -13 -2 -6
-10 -11 -17 -11 -23 0 -30 -42 -9 -57 9 -7 15 -15 12 -19 -4 -3 3 -15 13 -25
27 -27 21 -62 -11 -69 -14 -3 -25 -13 -25 -23 0 -9 -4 -16 -9 -16 -11 1 -26
-21 -26 -38 0 -7 7 -13 16 -13 8 0 12 -4 9 -10 -3 -5 1 -10 9 -10 9 0 15 -3
14 -8 -2 -4 7 -18 20 -32 15 -16 22 -19 22 -9 0 8 9 20 20 27 17 10 23 9 37
-7 9 -11 20 -18 25 -15 4 3 8 -1 8 -9 0 -20 26 -41 35 -27 3 5 13 10 22 10 9
0 24 7 34 16 14 12 28 15 55 9 25 -4 33 -9 25 -15 -11 -6 -11 -8 -1 -12 20 -6
70 3 70 13 0 13 33 44 48 45 6 1 17 2 23 3 6 0 1 13 -10 27 -22 27 -29 94 -11
94 6 0 10 7 10 15 0 8 6 15 14 15 8 0 24 9 37 19 l24 19 -28 7 c-29 8 -47 36
-54 88 -3 20 0 27 12 27 24 0 31 31 10 46 -15 11 -20 10 -33 -3 -14 -14 -17
-14 -27 1 -13 17 -75 22 -75 6 0 -5 -7 -10 -15 -10 -8 0 -24 -5 -34 -11 -15
-10 -22 -8 -39 9 -12 12 -19 28 -16 35 6 17 -23 27 -51 17z m138 -152 c9 -11
17 -26 17 -33 0 -7 5 -15 11 -17 19 -6 19 -76 1 -98 -14 -17 -30 -21 -98 -23
-60 -1 -80 -5 -77 -14 3 -7 -2 -13 -11 -13 -9 0 -16 7 -16 15 0 8 -4 15 -10
15 -5 0 -10 11 -10 25 0 14 -4 25 -10 25 -5 0 -10 5 -10 11 0 5 4 7 10 4 5 -3
12 6 16 20 3 14 10 25 15 25 5 0 14 11 19 25 5 14 16 25 24 25 8 0 19 6 23 14
18 31 77 27 106 -6z"/>
<path d="M12373 6975 c0 -8 4 -12 9 -9 4 3 8 9 8 15 0 5 -4 9 -8 9 -5 0 -9 -7
-9 -15z"/>
<path d="M12335 6941 c-3 -5 -1 -12 5 -16 5 -3 10 1 10 9 0 18 -6 21 -15 7z"/>
<path d="M17860 10280 c0 -11 -6 -23 -14 -26 -7 -3 -16 -23 -20 -45 -3 -21
-10 -39 -14 -39 -4 0 -19 -31 -32 -69 l-24 -70 27 -27 c30 -29 34 -76 10 -102
-27 -28 -9 -63 41 -82 27 -10 36 -46 17 -66 -5 -5 -10 -22 -12 -39 -4 -51 0
-65 16 -59 8 4 15 1 15 -5 0 -6 17 -11 39 -11 38 0 41 3 51 48 1 4 9 15 18 26
14 15 26 17 75 12 56 -6 57 -5 57 19 0 14 5 25 10 25 6 0 10 9 10 20 0 25 36
41 68 29 40 -15 50 -10 68 36 9 25 21 45 25 45 5 0 9 8 9 18 0 10 4 22 9 28 5
5 11 23 13 39 2 17 9 36 16 43 20 21 15 63 -8 69 -11 3 -20 9 -20 14 0 5 -13
9 -28 9 -15 0 -33 5 -38 10 -7 7 -15 2 -24 -15 -7 -14 -17 -25 -22 -25 -4 0
-8 -13 -8 -30 0 -16 -3 -30 -8 -30 -4 0 -15 -23 -25 -51 -17 -47 -20 -50 -50
-49 -18 1 -38 2 -44 1 -14 -1 -47 -68 -57 -113 -7 -32 -11 -33 -59 -13 -45 18
-53 31 -33 51 9 8 16 23 16 33 0 9 4 21 9 27 5 5 12 23 15 40 6 26 3 32 -19
42 -25 12 -31 23 -18 35 3 4 8 21 10 39 2 17 9 39 17 47 7 9 17 27 20 41 4 14
12 35 18 47 9 18 8 27 -7 43 -10 11 -26 20 -35 20 -10 0 -23 7 -30 15 -19 22
-50 19 -50 -5z"/>
<path d="M18970 10115 c0 -8 -7 -15 -15 -15 -8 0 -15 -4 -15 -10 0 -5 -18 -10
-40 -10 -37 0 -41 -3 -60 -42 -25 -51 -25 -77 -2 -84 9 -3 25 -10 34 -15 10
-5 25 -9 33 -9 8 0 15 -4 15 -10 0 -23 46 -9 63 20 15 25 25 30 56 30 20 0 42
-5 49 -12 6 -6 22 -13 34 -15 12 -2 25 -8 28 -12 3 -5 18 -13 33 -17 29 -7 29
-7 22 -68 -4 -33 -11 -62 -16 -64 -5 -2 -9 -8 -9 -14 0 -42 -122 -62 -171 -27
-39 27 -79 35 -79 15 0 -9 -4 -16 -10 -16 -5 0 -10 -11 -10 -24 0 -13 -4 -26
-9 -28 -5 -1 -11 -14 -13 -28 -2 -21 1 -25 27 -28 17 -2 35 -9 40 -16 6 -8 19
-15 30 -17 11 -2 24 -14 30 -26 5 -12 18 -23 30 -25 11 -2 21 -11 23 -22 5
-24 -27 -126 -39 -126 -5 0 -9 -9 -9 -20 0 -11 -6 -20 -14 -20 -7 0 -16 -9
-19 -20 -5 -21 -51 -29 -62 -10 -3 6 -14 10 -24 10 -10 0 -31 11 -47 25 -16
14 -37 25 -46 25 -36 0 -74 59 -48 75 30 19 -6 69 -57 81 -16 4 -33 11 -40 16
-22 18 -58 5 -62 -22 -1 -14 -6 -27 -11 -30 -4 -3 -10 -15 -14 -27 -6 -19 -2
-25 20 -33 26 -10 27 -13 21 -69 -4 -49 -2 -61 14 -75 11 -9 28 -17 38 -19 10
-2 26 -11 35 -20 10 -9 31 -17 47 -17 20 0 29 -5 29 -16 0 -10 5 -14 15 -10
15 5 65 -12 65 -23 0 -3 11 -7 24 -7 13 -1 37 -12 53 -24 l30 -22 38 20 c20
12 43 18 50 16 7 -3 16 4 20 15 5 18 12 20 46 15 35 -6 41 -4 46 15 3 11 9 21
14 21 5 0 9 13 9 30 0 16 6 33 13 37 23 15 57 123 38 123 -6 0 -11 7 -11 15 0
8 -7 15 -15 15 -10 0 -14 10 -13 33 1 39 -7 57 -27 57 -21 0 -22 33 -3 52 10
10 33 18 53 18 19 0 35 4 35 9 0 5 18 7 39 5 39 -5 39 -4 46 36 4 22 11 40 16
40 5 0 9 10 9 23 0 12 7 35 15 51 17 33 11 66 -12 66 -11 0 -14 6 -9 25 5 19
2 25 -10 25 -11 0 -15 9 -14 33 3 50 1 57 -15 57 -8 0 -15 3 -15 8 0 4 -15 13
-32 21 -18 7 -47 19 -65 27 -17 8 -34 14 -39 14 -4 0 -15 7 -24 15 -9 8 -26
16 -38 18 -12 2 -28 9 -34 15 -18 18 -108 16 -108 -3z"/>
<path d="M18288 9605 c-10 -13 -18 -33 -18 -44 0 -12 -4 -21 -8 -21 -4 0 -9
-13 -10 -29 -2 -23 3 -30 23 -35 14 -4 24 -12 22 -18 -1 -6 14 -15 33 -19 44
-10 90 15 90 48 0 13 5 23 10 23 6 0 10 14 10 30 0 17 -4 30 -10 30 -5 0 -10
7 -10 15 0 9 -9 15 -24 15 -13 0 -26 4 -28 8 -1 5 -16 11 -33 15 -24 4 -34 0
-47 -18z"/>
<path d="M17746 9022 c-27 -46 -46 -85 -46 -96 0 -25 -28 -40 -53 -29 -52 25
-79 33 -88 28 -5 -4 -9 -1 -9 4 0 6 -7 11 -15 11 -8 0 -15 -7 -15 -15 0 -8 -4
-15 -9 -15 -5 0 -12 -16 -15 -36 -9 -43 -25 -50 -68 -30 -31 15 -116 46 -124
46 -2 0 -4 -9 -4 -19 0 -10 -7 -21 -15 -25 -8 -3 -15 -14 -15 -25 0 -11 -5
-23 -11 -26 -6 -4 -8 -13 -5 -20 7 -18 -28 -47 -48 -39 -9 3 -16 10 -16 15 0
5 -13 9 -29 9 -17 0 -33 5 -36 10 -9 15 -25 12 -25 -5 0 -9 -7 -18 -15 -21
-10 -4 -13 -13 -10 -25 4 -11 2 -19 -5 -19 -7 0 -10 -7 -6 -15 3 -8 2 -15 -2
-15 -4 0 -14 -20 -21 -45 -7 -25 -17 -45 -22 -45 -5 0 -9 -9 -9 -20 0 -11 -4
-20 -8 -20 -5 0 -15 -19 -22 -42 -7 -24 -16 -46 -22 -49 -5 -3 -10 -16 -11
-27 -1 -12 -7 -22 -14 -22 -7 0 -13 -4 -13 -9 0 -5 -5 -22 -12 -38 -6 -15 -13
-36 -14 -45 -2 -9 -13 -33 -24 -53 -11 -19 -20 -42 -20 -51 0 -8 -7 -17 -15
-20 -8 -4 -15 -17 -15 -30 0 -13 -4 -24 -10 -24 -5 0 -10 -12 -10 -26 0 -15
-6 -32 -14 -38 -8 -6 -17 -28 -20 -48 -6 -34 -4 -38 14 -39 28 -2 32 -3 58
-17 22 -13 31 -52 12 -52 -5 0 -10 -13 -10 -28 0 -15 -5 -33 -12 -40 -14 -14
-2 -29 27 -34 11 -1 26 -9 33 -15 7 -7 22 -13 33 -13 22 0 25 -18 5 -45 -7
-11 -19 -37 -26 -58 -11 -34 -10 -40 7 -52 10 -8 30 -17 46 -20 15 -4 27 -11
27 -16 0 -5 8 -9 18 -9 30 0 41 -19 31 -52 -4 -16 -12 -35 -17 -41 -5 -7 -12
-24 -16 -40 -5 -23 -2 -29 21 -39 16 -7 34 -18 41 -25 7 -7 24 -13 38 -13 13
0 24 -4 24 -8 0 -11 48 -35 73 -38 9 -1 26 -9 37 -19 10 -9 23 -14 28 -11 6 3
12 -1 16 -9 3 -8 16 -15 30 -15 13 0 26 -7 30 -15 3 -8 12 -12 21 -9 8 3 15 1
15 -5 0 -6 8 -11 18 -11 10 0 35 -9 56 -19 21 -11 51 -23 68 -26 16 -4 32 -13
35 -21 3 -8 15 -14 27 -14 11 0 30 -7 40 -15 11 -8 30 -15 42 -15 12 0 24 -7
28 -15 3 -8 16 -15 28 -15 13 0 35 -8 48 -17 14 -10 29 -18 35 -19 24 -3 55
-17 55 -25 0 -5 8 -9 18 -9 10 0 22 -4 28 -10 5 -5 26 -12 47 -15 33 -6 37 -4
37 14 0 12 4 21 9 21 5 0 12 10 16 23 4 12 8 24 10 27 1 3 5 13 10 23 6 14 14
17 34 12 37 -9 81 -29 81 -37 0 -3 19 -9 43 -13 23 -4 45 -12 48 -17 11 -16
38 3 44 33 4 16 11 29 16 29 6 0 9 8 7 18 -4 26 10 42 37 42 13 0 30 -6 37
-12 16 -16 78 -38 104 -38 18 0 44 39 44 67 0 7 5 13 10 13 6 0 10 11 10 25 0
16 6 25 15 25 10 0 15 10 15 30 0 20 5 30 15 30 9 0 15 9 15 24 0 14 5 28 10
31 6 3 10 14 10 24 0 9 9 27 20 39 11 12 19 25 18 29 -1 4 6 22 15 40 9 18 17
41 17 53 0 11 7 20 15 20 10 0 15 10 15 29 0 16 6 31 14 34 7 3 14 18 14 33 0
16 5 30 11 32 6 2 11 15 11 28 0 15 6 24 15 24 8 0 15 8 15 17 0 22 22 83 30
83 4 0 15 27 26 60 10 33 22 60 26 60 5 0 8 7 8 15 0 8 -7 15 -15 15 -7 0 -18
6 -22 13 -7 11 -25 22 -53 32 -36 12 -39 17 -28 38 7 12 13 31 15 42 2 11 8
24 13 29 6 6 10 18 10 28 0 10 4 18 10 18 5 0 8 9 7 20 -4 23 -38 44 -85 55
-39 8 -46 27 -24 68 9 17 17 40 17 50 0 19 -36 41 -84 52 -32 7 -38 22 -22 53
38 71 50 122 30 122 -6 0 -17 7 -25 15 -9 8 -24 15 -35 15 -10 0 -19 5 -19 10
0 6 -9 10 -19 10 -11 0 -23 5 -26 10 -3 6 -14 10 -24 10 -10 0 -30 9 -44 20
-14 11 -34 20 -45 20 -11 0 -25 7 -32 15 -7 9 -18 14 -25 11 -6 -2 -22 5 -36
15 -13 10 -34 19 -46 19 -13 0 -23 5 -23 10 0 6 -7 10 -15 10 -8 0 -15 5 -15
10 0 6 -7 10 -15 10 -8 0 -23 4 -33 10 -9 5 -39 19 -67 30 -122 52 -183 79
-205 92 -8 4 -26 13 -40 19 -14 6 -38 17 -55 24 -47 20 -64 25 -69 17z m-217
-262 c22 0 66 -36 53 -44 -19 -11 -62 -14 -68 -4 -4 6 -8 25 -10 42 -1 17 0
25 3 19 2 -7 13 -13 22 -13z m141 -49 c0 -5 15 -12 34 -15 19 -4 37 -13 40
-22 3 -8 10 -12 16 -9 5 3 10 1 10 -4 0 -6 11 -11 25 -11 14 0 25 -4 25 -10 0
-5 16 -12 35 -16 19 -3 35 -10 35 -14 0 -5 14 -11 30 -15 17 -4 30 -11 30 -16
0 -5 9 -9 19 -9 11 0 30 -4 43 -9 13 -5 27 -9 32 -9 5 0 13 -7 18 -16 5 -9 20
-16 33 -16 14 0 25 -4 25 -10 0 -5 9 -10 20 -10 11 0 20 -4 20 -10 0 -5 9 -10
20 -10 11 0 20 -4 20 -10 0 -5 7 -10 15 -10 8 0 15 -4 15 -9 0 -5 14 -12 30
-16 17 -4 30 -11 30 -16 0 -5 9 -9 20 -9 11 0 20 -5 20 -11 0 -7 10 -9 25 -7
14 3 25 1 25 -3 0 -5 11 -9 25 -9 16 0 25 -6 25 -15 0 -10 10 -15 30 -15 17 0
30 -4 30 -10 0 -5 8 -10 18 -10 19 0 42 -18 42 -33 0 -4 -5 -5 -10 -2 -15 9
-41 -21 -34 -39 4 -12 2 -15 -9 -11 -16 7 -31 -20 -21 -37 3 -5 -2 -16 -12
-23 -18 -13 -17 -14 14 -15 17 0 32 -5 32 -11 0 -6 8 -8 20 -4 32 10 59 -11
58 -45 -1 -17 -5 -33 -10 -36 -4 -3 -8 -18 -8 -34 0 -23 -3 -28 -17 -23 -12 5
-15 2 -10 -9 3 -9 -1 -25 -8 -36 -8 -10 -12 -22 -9 -25 4 -3 -3 -18 -13 -34
-11 -15 -18 -34 -16 -40 3 -7 -2 -13 -11 -13 -10 0 -13 -6 -10 -15 4 -8 -1
-17 -10 -21 -9 -3 -16 -17 -16 -30 0 -13 -4 -24 -10 -24 -5 0 -10 -9 -10 -20
0 -11 -5 -20 -11 -20 -5 0 -7 -5 -3 -12 4 -6 1 -16 -7 -22 -8 -6 -21 -24 -29
-41 -8 -16 -19 -33 -24 -36 -5 -4 -9 -21 -10 -38 -1 -19 -6 -31 -15 -31 -9 0
-11 -7 -8 -21 3 -12 0 -22 -9 -26 -8 -3 -14 -14 -14 -24 0 -10 -5 -19 -11 -19
-6 0 -9 -6 -6 -14 3 -7 -6 -30 -19 -50 -24 -35 -44 -47 -44 -25 0 5 5 7 11 3
7 -4 10 -1 7 7 -4 10 -18 13 -46 11 -22 -2 -43 2 -47 7 -3 6 0 9 8 5 8 -3 19
1 25 9 10 12 8 13 -13 9 -15 -2 -25 0 -25 7 0 6 -7 11 -15 11 -18 0 -19 -12
-3 -28 6 -6 8 -15 4 -19 -4 -4 -11 -1 -16 7 -6 9 -8 3 -7 -21 2 -18 6 -40 11
-48 5 -8 4 -16 -4 -21 -6 -4 -11 -11 -10 -16 1 -5 -3 -10 -9 -12 -6 -2 -11 3
-11 12 0 9 -4 16 -10 16 -5 0 -10 -4 -10 -10 0 -5 -9 -10 -20 -10 -11 0 -20 5
-20 11 0 7 -9 9 -21 6 -15 -4 -19 -2 -15 8 3 9 -6 16 -26 20 -17 4 -37 12 -45
19 -8 6 -19 16 -26 21 -7 6 -23 11 -36 12 -14 1 -29 9 -33 18 -5 8 -17 15 -28
15 -10 0 -31 5 -47 12 -15 6 -34 12 -41 14 -8 1 -20 11 -27 21 -12 15 -17 16
-34 6 -27 -17 -32 -16 -24 4 4 11 3 14 -5 9 -7 -4 -12 -2 -12 3 0 6 -9 11 -20
11 -11 0 -20 5 -20 10 0 6 -9 10 -20 10 -11 0 -20 5 -20 11 0 5 -4 8 -9 5 -4
-3 -19 3 -31 14 -13 11 -29 20 -35 20 -7 0 -18 6 -24 14 -7 8 -21 12 -32 9
-14 -4 -25 2 -35 16 -11 15 -22 20 -35 16 -16 -5 -23 0 -31 23 -9 24 -17 29
-46 30 -20 1 -38 6 -41 11 -3 5 -17 11 -31 12 -27 4 -40 43 -21 62 6 6 11 24
11 40 0 22 4 28 15 23 8 -3 15 -1 15 4 0 6 -4 10 -9 10 -5 0 -11 9 -14 20 -3
12 -11 18 -19 15 -28 -11 -65 12 -65 39 0 15 3 29 8 32 5 3 9 14 9 25 0 10 5
19 11 19 6 0 9 7 5 15 -3 8 2 22 12 31 9 9 18 23 19 30 2 8 4 21 6 30 2 8 9
19 16 23 6 4 9 15 5 24 -3 9 -2 17 2 17 5 0 15 14 23 30 11 26 11 33 -1 47
-11 15 -10 16 9 11 19 -5 22 -1 28 33 4 21 12 37 18 36 7 -1 11 4 9 12 -2 7 4
21 12 30 16 18 38 91 28 91 -4 0 1 5 11 11 9 5 17 15 17 20 0 6 6 17 14 25 17
16 46 9 46 -12 0 -8 5 -14 10 -14 6 0 10 -4 10 -10 0 -17 39 -50 60 -50 13 0
22 9 26 25 3 14 10 25 16 25 5 0 7 9 3 19 -3 11 0 23 7 28 23 15 35 48 30 82
-4 29 -2 33 13 27 13 -4 16 -2 11 9 -3 8 0 15 6 15 6 0 6 6 -3 16 -11 14 -10
15 7 12 13 -2 18 2 16 14 -2 16 13 24 51 27 9 0 17 -3 17 -8z m-204 -26 c-2
-7 1 -18 7 -24 7 -7 8 -12 2 -11 -24 5 -33 -1 -28 -20 3 -11 0 -20 -6 -20 -6
0 -10 14 -8 35 1 22 7 35 16 35 8 0 11 6 7 16 -3 9 -2 12 5 9 6 -4 8 -13 5
-20z m561 9 c-3 -3 -12 -4 -19 -1 -8 3 -5 6 6 6 11 1 17 -2 13 -5z m-483 -31
c16 6 22 -4 10 -16 -9 -9 -54 15 -47 26 3 5 9 4 13 -3 4 -7 15 -10 24 -7z
m-224 -7 c0 -3 -4 -8 -10 -11 -5 -3 -10 -1 -10 4 0 6 5 11 10 11 6 0 10 -2 10
-4z m657 -22 c-3 -3 -12 -4 -19 -1 -8 3 -5 6 6 6 11 1 17 -2 13 -5z m107 -89
c-4 -8 -8 -15 -10 -15 -2 0 -4 7 -4 15 0 8 4 15 10 15 5 0 7 -7 4 -15z m371
-55 c3 -5 1 -10 -4 -10 -6 0 -11 5 -11 10 0 6 2 10 4 10 3 0 8 -4 11 -10z m52
-22 c-3 -8 -6 -5 -6 6 -1 11 2 17 5 13 3 -3 4 -12 1 -19z m67 -37 c-7 -8 -35
9 -29 19 4 6 11 5 20 -3 7 -6 11 -14 9 -16z m-1494 -191 c0 -5 -2 -10 -4 -10
-3 0 -8 5 -11 10 -3 6 -1 10 4 10 6 0 11 -4 11 -10z m1058 -879 c3 -8 -1 -12
-9 -9 -7 2 -15 10 -17 17 -3 8 1 12 9 9 7 -2 15 -10 17 -17z m42 -1 c0 -5 -5
-10 -11 -10 -5 0 -7 5 -4 10 3 6 8 10 11 10 2 0 4 -4 4 -10z m-42 -45 c-3 -14
-1 -25 5 -25 7 0 7 -4 -1 -12 -6 -6 -14 -9 -17 -6 -6 6 5 68 12 68 3 0 3 -11
1 -25z m82 15 c0 -5 -2 -10 -4 -10 -3 0 -8 5 -11 10 -3 6 -1 10 4 10 6 0 11
-4 11 -10z"/>
<path d="M17780 8275 c0 -14 -4 -25 -10 -25 -5 0 -10 -11 -10 -25 0 -20 -5
-25 -25 -25 -14 0 -42 7 -63 15 -34 15 -38 15 -50 -2 -7 -10 -15 -34 -19 -55
-3 -23 -11 -38 -19 -38 -8 0 -14 -10 -14 -25 0 -14 -5 -25 -10 -25 -7 0 -10
-22 -8 -57 3 -50 6 -58 22 -56 11 1 25 -5 33 -13 8 -8 21 -14 29 -14 18 0 16
-76 -3 -91 -29 -24 -7 -91 27 -82 12 3 22 -1 26 -10 3 -9 19 -19 35 -22 16 -4
29 -10 29 -13 0 -4 9 -13 20 -20 27 -16 57 2 66 40 10 47 55 60 107 33 21 -11
34 -12 48 -4 11 5 17 14 14 20 -4 5 1 9 9 9 9 0 16 9 16 20 0 11 5 20 10 20 6
0 10 9 10 19 0 11 4 21 10 23 8 2 39 73 56 128 4 11 -6 20 -30 28 -42 15 -43
20 -16 97 24 69 24 65 5 65 -8 0 -15 4 -15 10 0 5 -17 12 -37 15 -45 8 -84 25
-99 44 -6 8 -16 11 -22 7 -6 -4 -26 1 -43 9 -17 9 -42 19 -55 21 -20 4 -24 0
-24 -21z"/>
<path d="M18310 8106 c0 -15 18 -31 26 -23 7 7 -7 37 -17 37 -5 0 -9 -6 -9
-14z"/>
</g>
</svg>
